<?xml version="1.0" encoding="utf-8"?>
<!-- Generator: Adobe Illustrator 16.0.0, SVG Export Plug-In . SVG Version: 6.00 Build 0)  -->
<!DOCTYPE svg PUBLIC "-//W3C//DTD SVG 1.1//EN" "http://www.w3.org/Graphics/SVG/1.1/DTD/svg11.dtd">
<svg version="1.1" id="Layer_1" xmlns="http://www.w3.org/2000/svg" xmlns:xlink="http://www.w3.org/1999/xlink" x="0px" y="0px"
	 width="89.75px" height="33px" viewBox="31.75 22.25 89.75 33" enable-background="new 31.75 22.25 89.75 33" xml:space="preserve"
	>
<g>
	<path fill="#C2B59B" stroke="#C2B59B" stroke-width="0.7209" stroke-miterlimit="10" d="M71.548,48.012h4.269
		c-0.05-0.471-0.264-0.908-0.614-1.249c-0.406-0.393-0.946-0.609-1.52-0.609C72.575,46.155,71.66,46.97,71.548,48.012z"/>
</g>
<g>
	<path fill="#C2B59B" stroke="#C2B59B" stroke-width="0.7209" stroke-miterlimit="10" d="M49.405,48.012h4.269
		c-0.05-0.471-0.264-0.908-0.614-1.249c-0.406-0.393-0.946-0.609-1.52-0.609C50.431,46.155,49.517,46.97,49.405,48.012z"/>
</g>
<g>
	<path fill="#C2B59B" d="M85.062,33.729h3.318c0.618,0,1.179,0.093,1.682,0.279c0.502,0.187,0.931,0.446,1.287,0.778
		c0.355,0.333,0.631,0.729,0.826,1.19s0.293,0.966,0.293,1.515c0,0.579-0.097,1.105-0.289,1.581
		c-0.193,0.476-0.47,0.883-0.828,1.223c-0.357,0.34-0.787,0.603-1.289,0.789c-0.503,0.186-1.063,0.279-1.682,0.279h-3.318V33.729z
		 M88.381,39.367c0.278,0,0.518-0.06,0.719-0.179c0.2-0.119,0.365-0.271,0.496-0.456c0.13-0.184,0.226-0.389,0.287-0.613
		c0.062-0.224,0.092-0.44,0.092-0.65c0-0.253-0.039-0.486-0.116-0.699s-0.187-0.398-0.328-0.553
		c-0.141-0.155-0.309-0.276-0.505-0.363c-0.194-0.086-0.41-0.13-0.645-0.13h-0.867v3.643H88.381z"/>
	<path fill="#C2B59B" d="M93.549,33.729h2.559v7.634h-2.559V33.729z"/>
	<path fill="#C2B59B" d="M97.561,33.729h2.223l3.047,4.11v-4.11h1.984v7.634h-2.223l-3.059-3.98v3.98h-1.973V33.729z"/>
	<path fill="#C2B59B" d="M105.889,37.557c0-1.103,0.35-2.031,1.051-2.787c0.748-0.806,1.761-1.209,3.037-1.209
		c0.621,0,1.184,0.101,1.686,0.301c0.502,0.201,0.931,0.478,1.285,0.833c0.354,0.354,0.627,0.776,0.818,1.266
		s0.287,1.022,0.287,1.597c0,0.347-0.039,0.687-0.119,1.019c-0.079,0.333-0.197,0.646-0.354,0.941s-0.352,0.565-0.583,0.813
		c-0.231,0.248-0.498,0.46-0.8,0.64c-0.302,0.179-0.638,0.318-1.009,0.417c-0.37,0.1-0.773,0.149-1.211,0.149
		c-0.449,0-0.859-0.051-1.234-0.152c-0.373-0.101-0.713-0.242-1.016-0.423c-0.305-0.181-0.57-0.396-0.801-0.645
		c-0.229-0.25-0.42-0.521-0.574-0.816c-0.153-0.295-0.27-0.606-0.348-0.936C105.927,38.236,105.889,37.9,105.889,37.557z
		 M109.977,39.519c0.285,0,0.527-0.06,0.729-0.182c0.201-0.121,0.365-0.276,0.494-0.466c0.128-0.189,0.222-0.402,0.281-0.637
		c0.061-0.235,0.09-0.464,0.09-0.689c0-0.292-0.037-0.561-0.111-0.805c-0.074-0.244-0.181-0.456-0.32-0.635
		c-0.139-0.179-0.307-0.32-0.504-0.425s-0.416-0.163-0.658-0.174c-0.289,0.007-0.535,0.073-0.738,0.195
		c-0.202,0.123-0.367,0.281-0.496,0.475c-0.128,0.193-0.222,0.41-0.281,0.65c-0.061,0.241-0.09,0.48-0.09,0.718
		c0,0.282,0.037,0.543,0.111,0.784s0.181,0.448,0.32,0.624c0.139,0.175,0.308,0.313,0.506,0.415
		C109.508,39.469,109.73,39.519,109.977,39.519z"/>
</g>
<g>
	<path fill="#C2B59B" d="M86.166,48.543c-0.59,0-1.483-0.038-2.68-0.115v-5.429h2.711c0.29,0,0.559,0.031,0.805,0.092
		s0.459,0.149,0.639,0.262c0.18,0.112,0.32,0.25,0.422,0.414s0.152,0.346,0.152,0.549c0,0.331-0.072,0.595-0.215,0.793
		c-0.145,0.197-0.36,0.318-0.647,0.361c0.359,0.034,0.634,0.162,0.823,0.385c0.191,0.224,0.285,0.529,0.285,0.917
		c0,0.244-0.058,0.473-0.173,0.688s-0.276,0.402-0.481,0.562c-0.205,0.161-0.447,0.288-0.728,0.381S86.495,48.543,86.166,48.543z
		 M86.729,46.665c0-0.108-0.02-0.203-0.06-0.285s-0.096-0.15-0.167-0.204c-0.072-0.054-0.158-0.095-0.258-0.123
		c-0.102-0.028-0.211-0.042-0.332-0.042h-0.678v1.267c0.059,0.002,0.117,0.004,0.174,0.004s0.109,0,0.162,0h0.441
		c0.101,0,0.194-0.014,0.281-0.042c0.088-0.028,0.164-0.069,0.228-0.123s0.114-0.119,0.152-0.194
		C86.71,46.845,86.729,46.76,86.729,46.665z M86.574,44.601c0-0.37-0.23-0.555-0.693-0.555h-0.639v1.093h0.624
		c0.101,0,0.194-0.013,0.28-0.038c0.088-0.026,0.163-0.062,0.227-0.108c0.062-0.046,0.111-0.102,0.147-0.169
		S86.574,44.683,86.574,44.601z"/>
	<path fill="#C2B59B" d="M91.801,47.119c0.295,0,0.518-0.08,0.672-0.241c0.152-0.16,0.229-0.396,0.229-0.707v-3.173h1.779v3.173
		c0,0.277-0.037,0.528-0.11,0.753s-0.173,0.425-0.3,0.601s-0.277,0.328-0.449,0.457s-0.357,0.234-0.557,0.317
		s-0.406,0.145-0.621,0.185c-0.217,0.04-0.431,0.059-0.643,0.059c-0.732,0-1.353-0.2-1.86-0.601
		c-0.548-0.426-0.821-1.016-0.821-1.771v-3.173h1.779v3.173C90.898,46.803,91.199,47.119,91.801,47.119z"/>
	<path fill="#C2B59B" d="M100.294,48.405c-0.336,0.092-0.579,0.138-0.728,0.138c-0.952,0-1.551-0.433-1.795-1.301l-0.215-0.878
		h-0.369v2.056h-1.727v-5.421h2.411c0.313,0,0.607,0.035,0.882,0.106c0.275,0.071,0.514,0.173,0.719,0.308
		c0.203,0.135,0.363,0.301,0.48,0.499s0.176,0.425,0.176,0.682c0,0.19-0.023,0.36-0.072,0.51c-0.047,0.15-0.115,0.285-0.205,0.404
		c-0.09,0.119-0.199,0.225-0.33,0.317c-0.129,0.093-0.275,0.175-0.44,0.247l0.034,0.188c0.008,0.044,0.016,0.081,0.023,0.112
		s0.015,0.057,0.02,0.077l0.043,0.166c0.03,0.097,0.065,0.181,0.105,0.248c0.039,0.068,0.09,0.124,0.152,0.166
		c0.061,0.042,0.138,0.073,0.229,0.092c0.092,0.019,0.203,0.029,0.333,0.029c0.021,0,0.054-0.002,0.099-0.007
		c0.045-0.005,0.104-0.013,0.175-0.023V48.405z M98.55,44.67c0-0.101-0.021-0.183-0.063-0.249s-0.101-0.117-0.176-0.154
		c-0.074-0.037-0.161-0.063-0.262-0.077c-0.1-0.014-0.207-0.021-0.322-0.021h-0.539v1.086h0.3l0.254-0.012
		c0.101-0.007,0.198-0.021,0.294-0.04c0.098-0.02,0.184-0.05,0.261-0.092c0.077-0.042,0.138-0.099,0.185-0.169
		C98.527,44.871,98.55,44.781,98.55,44.67z"/>
	<path fill="#C2B59B" d="M104.664,44.493c-0.456-0.148-0.816-0.223-1.078-0.223c-0.191,0-0.361,0.04-0.51,0.12
		c-0.147,0.08-0.271,0.185-0.371,0.315s-0.176,0.282-0.228,0.453s-0.077,0.346-0.077,0.525c0,0.201,0.029,0.389,0.087,0.564
		s0.139,0.328,0.243,0.458c0.104,0.13,0.229,0.232,0.375,0.308s0.307,0.113,0.48,0.113c0.096,0,0.201-0.007,0.316-0.023v-1.278
		l1.363-0.154v2.464c-0.613,0.272-1.245,0.408-1.895,0.408c-0.755,0-1.398-0.279-1.93-0.839c-0.531-0.562-0.797-1.242-0.797-2.041
		c0-0.778,0.271-1.438,0.812-1.979c0.534-0.539,1.17-0.809,1.906-0.809c0.672,0,1.281,0.13,1.825,0.393L104.664,44.493z"/>
	<path fill="#C2B59B" d="M106.12,42.999h3.804v1.194h-1.895v0.986h1.733v0.993h-1.733v1.063h1.895v1.186h-3.804V42.999z"/>
	<path fill="#C2B59B" d="M115.643,48.405c-0.336,0.092-0.579,0.138-0.728,0.138c-0.952,0-1.551-0.433-1.794-1.301l-0.217-0.878
		h-0.369v2.056h-1.725v-5.421h2.41c0.313,0,0.607,0.035,0.882,0.106s0.515,0.173,0.718,0.308c0.205,0.135,0.365,0.301,0.481,0.499
		c0.117,0.198,0.175,0.425,0.175,0.682c0,0.19-0.023,0.36-0.07,0.51c-0.048,0.15-0.117,0.285-0.207,0.404
		c-0.09,0.119-0.199,0.225-0.328,0.317c-0.131,0.093-0.277,0.175-0.441,0.247l0.035,0.188c0.008,0.044,0.016,0.081,0.022,0.112
		c0.008,0.031,0.015,0.057,0.02,0.077l0.042,0.166c0.031,0.097,0.066,0.181,0.106,0.248c0.04,0.068,0.091,0.124,0.151,0.166
		c0.062,0.042,0.139,0.073,0.229,0.092c0.091,0.019,0.202,0.029,0.333,0.029c0.021,0,0.053-0.002,0.098-0.007
		c0.046-0.005,0.104-0.013,0.176-0.023V48.405z M113.898,44.67c0-0.101-0.021-0.183-0.063-0.249s-0.101-0.117-0.175-0.154
		c-0.075-0.037-0.162-0.063-0.262-0.077c-0.102-0.014-0.209-0.021-0.324-0.021h-0.539v1.086h0.301l0.254-0.012
		c0.1-0.007,0.198-0.021,0.295-0.04c0.096-0.02,0.183-0.05,0.26-0.092c0.076-0.042,0.139-0.099,0.185-0.169
		C113.875,44.871,113.898,44.781,113.898,44.67z"/>
</g>
<path fill="#C2B59B" d="M87.535,27.705c-0.625-0.512-1.898-0.335-3.436,0.171c-1.299,0.427-10.105,4.881-14.662,6.145
	c-1.861-0.536-4.055-0.847-6.435-0.847c-6.872,0-12.255,2.551-12.255,5.809h0.34c0,0.006,0.001,0.012,0.001,0.018h23.83
	c0-0.006,0.001-0.011,0.001-0.018h0.339c0-0.742-0.291-1.443-0.803-2.09c2.432-1.948,9.152-7.273,9.99-7.309
	c1.025-0.043,2.748,0.557,3.365,0.271C88.428,29.568,88.16,28.217,87.535,27.705z"/>
<path fill="#C2B59B" d="M72.604,44.656c-0.818,0-1.585-0.246-2.113-0.668c-0.527,0.422-1.295,0.668-2.113,0.668
	c-0.717,0-1.404-0.191-1.92-0.529c-0.516,0.338-1.203,0.529-1.92,0.529c-0.662,0-1.291-0.158-1.792-0.449
	c-0.502,0.291-1.13,0.449-1.792,0.449c-0.741,0-1.443-0.201-1.963-0.557c-0.52,0.356-1.222,0.557-1.963,0.557
	c-0.6,0-1.183-0.134-1.663-0.38c-0.479,0.246-1.062,0.38-1.662,0.38c-1.158,0-2.127-0.471-2.56-1.158
	c-1.63,0.961-7.186,4.14-10.394,4.771c-3.789,0.746-5.854-0.091-5.305,0.523c0.548,0.613,4.038,0.534,5.667,0.265
	c0.768-0.127,3.562-0.727,6.643-1.445c0.638-1.396,2.075-2.376,3.747-2.376c1.094,0,2.123,0.413,2.897,1.163
	c0.49,0.475,0.822,1.054,1.015,1.681h14.308c0.509-1.639,2.059-2.844,3.911-2.844c0.352,0,0.692,0.058,1.025,0.141v-1.341
	C74.149,44.417,73.426,44.656,72.604,44.656z"/>
<rect x="51.54" y="39.667" fill="#C2B59B" width="22.699" height="1.875"/>
<path fill="#C2B59B" d="M74.666,42.161h-0.208h-22.5h-0.317h-0.455v0c0,0.928,1.126,1.68,2.517,1.68c0.638,0,1.219-0.159,1.662-0.42
	c0.444,0.261,1.024,0.42,1.663,0.42c0.794,0,1.501-0.246,1.962-0.629c0.462,0.384,1.168,0.629,1.963,0.629
	c0.701,0,1.335-0.192,1.792-0.501c0.457,0.309,1.09,0.501,1.792,0.501c0.77,0,1.459-0.231,1.92-0.595
	c0.462,0.364,1.15,0.595,1.92,0.595c0.887,0,1.664-0.306,2.113-0.768c0.449,0.462,1.227,0.768,2.113,0.768
	c1.39,0,2.517-0.752,2.517-1.68v0H74.666z"/>
</svg>
