<?xml version="1.0" encoding="utf-8"?>
<!-- Generator: Adobe Illustrator 16.0.4, SVG Export Plug-In . SVG Version: 6.00 Build 0)  -->
<!DOCTYPE svg PUBLIC "-//W3C//DTD SVG 1.1//EN" "http://www.w3.org/Graphics/SVG/1.1/DTD/svg11.dtd">
<svg version="1.1" id="Layer_1" xmlns="http://www.w3.org/2000/svg" xmlns:xlink="http://www.w3.org/1999/xlink" x="0px" y="0px"
	 width="441.044px" height="270.097px" viewBox="0 0 441.044 270.097" enable-background="new 0 0 441.044 270.097"
	 xml:space="preserve">
<g>
	<path fill="#231F20" d="M221.459,246.789c-58.605,0-106.284-47.679-106.284-106.284c0-58.606,47.679-106.286,106.284-106.286
		c58.607,0,106.287,47.68,106.287,106.286C327.746,199.11,280.066,246.789,221.459,246.789z"/>
	<path fill="#FFFFFF" d="M221.459,35.218c58.148,0,105.287,47.138,105.287,105.286c0,58.146-47.139,105.284-105.287,105.284
		c-58.146,0-105.284-47.139-105.284-105.284C116.175,82.356,163.313,35.218,221.459,35.218 M221.459,33.218
		c-28.656,0-55.597,11.16-75.861,31.423s-31.423,47.206-31.423,75.863c0,59.156,48.127,107.284,107.284,107.284
		c59.158,0,107.287-48.128,107.287-107.284c0-28.657-11.16-55.599-31.424-75.863S250.117,33.218,221.459,33.218L221.459,33.218z"/>
</g>
<circle fill="none" stroke="#FFFFFF" stroke-width="1.6952" stroke-miterlimit="10" cx="221.045" cy="141" r="95.538"/>
<g>
	<path fill="#231F20" stroke="#FFFFFF" stroke-width="1.3407" stroke-miterlimit="10" d="M224.705,80.09v5.173
		c0,1.955-0.346,3.563-1.037,4.827c-0.695,1.267-1.466,2.242-2.317,2.932c-0.427,0.345-0.773,0.719-1.038,1.121
		c-0.268,0.403-0.455,1.063-0.56,1.982v0.345v87.764c0,4.371-0.719,8.191-2.156,11.467s-3.409,5.979-5.91,8.104
		c-2.504,2.129-5.432,3.707-8.786,4.742s-7.004,1.551-10.942,1.551c-3.94,0-7.615-0.516-11.021-1.551
		c-3.41-1.035-6.39-2.613-8.945-4.742c-2.557-2.125-4.553-4.828-5.99-8.104c-1.438-3.275-2.157-7.096-2.157-11.467V96.814v-0.172
		c0-1.148-0.135-1.953-0.399-2.414c-0.267-0.458-0.666-0.862-1.197-1.207c-0.854-0.689-1.705-1.665-2.557-2.932
		c-0.854-1.264-1.277-2.872-1.277-4.827V80.09h27.155v5.173c0,1.955-0.506,3.563-1.518,4.827c-1.013,1.267-1.944,2.242-2.795,2.932
		c-0.534,0.345-0.934,0.749-1.198,1.207c-0.267,0.461-0.399,1.266-0.399,2.414v86.212c0,4.482,1.303,7.789,3.914,9.914
		c2.608,2.129,5.403,3.189,8.386,3.189c2.876,0,5.591-1.061,8.147-3.189c2.556-2.125,3.833-5.432,3.833-9.914V96.814v-0.172v-0.518
		c0-0.919-0.159-1.579-0.479-1.982c-0.32-0.402-0.694-0.776-1.118-1.121c-0.854-0.689-1.705-1.665-2.557-2.932
		c-0.854-1.264-1.277-2.872-1.277-4.827V80.09H224.705z"/>
	<path fill="#231F20" stroke="#FFFFFF" stroke-width="1.3407" stroke-miterlimit="10" d="M282.369,143.369
		c2.449,1.957,4.338,4.542,5.672,7.759c1.33,3.219,1.996,6.896,1.996,11.035v18.795c0,8.508-1.971,15.318-5.91,20.432
		c-3.941,5.117-10.438,7.674-19.488,7.674h-33.865v-5.174c0-2.297,0.293-4.078,0.879-5.344c0.584-1.264,1.41-2.184,2.477-2.76
		c0.531-0.229,1.01-0.66,1.438-1.293c0.424-0.631,0.639-1.465,0.639-2.5V97.332c0-1.608-0.639-2.815-1.916-3.621
		c-2.344-1.147-3.516-4.194-3.516-9.139V80.09h32.268c9.051,0,15.547,2.5,19.488,7.5c3.939,5,5.91,11.755,5.91,20.26v15.174
		c0,3.564-0.559,6.725-1.678,9.483c-1.117,2.759-2.689,5.116-4.711,7.069c-0.535,0.576-0.799,1.207-0.799,1.896
		S281.623,142.796,282.369,143.369z M252.019,133.196c0,1.495,0.691,2.241,2.076,2.241h8.945c3.301,0,5.75-1.177,7.348-3.534
		c1.598-2.354,2.396-5.545,2.396-9.569v-14.14c0-4.021-0.799-7.241-2.396-9.655s-4.047-3.621-7.348-3.621h-8.785
		c-0.746,0-1.305,0.259-1.678,0.776c-0.375,0.517-0.559,1.12-0.559,1.811V133.196z M274.382,163.027
		c0-4.023-0.773-7.242-2.316-9.656c-1.545-2.414-4.021-3.621-7.428-3.621h-10.383c-1.492,0-2.236,0.805-2.236,2.414v40.348
		c0,1.611,0.744,2.414,2.236,2.414h10.383c3.406,0,5.883-1.207,7.428-3.621c1.543-2.414,2.316-5.631,2.316-9.656V163.027z"/>
</g>
<g>
	<g>
		<polygon fill="#FFFFFF" points="26.742,169.501 26.742,170.357 48.729,192.343 27.786,213.287 90.849,213.287 90.849,169.501 		
			"/>
		<path fill="#231F20" d="M92.646,215.084H23.446l22.741-22.741l-21.243-21.241v-3.398h67.702V215.084z M32.126,211.489h56.924
			v-40.189H30.227l21.045,21.044L32.126,211.489z"/>
	</g>
	<g>
		<polygon fill="#FFFFFF" points="394.396,176.115 415.896,153.571 351.804,153.571 351.804,197.354 415.912,197.354 
			415.912,196.633 		"/>
		<path fill="#231F20" d="M417.708,199.152h-67.703v-47.379h70.09l-23.158,24.281l20.771,19.81V199.152z M353.601,195.556h58.576
			l-20.324-19.381l19.844-20.807h-58.096V195.556z"/>
	</g>
	<g>
		<path fill="#FFFFFF" d="M373.886,207.574c-18.434,16.463-99.025,11.454-149.791,0c-50.766-11.457-126.16-15.197-147.161,0
			c-0.062-9.554-0.062-24.783,0-45.687c22.783-12.096,99.569-8.211,147.793,0c48.229,8.209,135.861,24.742,149.158,0
			C374.49,168.83,374.49,198.02,373.886,207.574z"/>
		<path fill="#231F20" d="M318.587,219.923c-29.562,0-65.92-4.061-94.889-10.596c-27.745-6.262-61.413-10-90.061-10
			c-27.24,0-47.003,3.445-55.649,9.702l-2.829,2.048l-0.023-3.492c-0.062-9.515-0.062-24.892,0-45.704l0.003-1.077l0.952-0.505
			c12.288-6.523,38.021-7.894,57.444-7.894c28.508,0,63.566,2.954,91.495,7.709c2.49,0.424,5.086,0.87,7.771,1.332
			c28.729,4.938,68.072,11.699,98.016,11.699c23.209,0,37.166-4.074,41.484-12.109l2.852-5.308l0.523,6.002
			c0.613,7.058,0.617,36.263,0.004,45.956l-0.047,0.736l-0.551,0.491C364.896,218.013,338.738,219.923,318.587,219.923z
			 M133.638,195.732c28.899,0,62.862,3.771,90.854,10.088c28.727,6.481,64.781,10.508,94.096,10.508
			c26.928,0,45.873-3.413,53.549-9.625c0.457-8.422,0.523-29.337,0.197-39.842c-6.826,6.64-20.5,9.881-41.516,9.881
			c-30.25,0-69.77-6.792-98.625-11.752c-2.684-0.461-5.277-0.906-7.766-1.33c-27.743-4.724-62.57-7.658-90.891-7.658
			c-26.361,0-45.259,2.416-54.807,6.994c-0.052,18.051-0.057,31.927-0.014,41.339C91.54,197.279,115.291,195.732,133.638,195.732z"
			/>
	</g>
	<g>
		
			<rect x="75.06" y="209.055" transform="matrix(0.9364 0.3511 -0.3511 0.9364 79.3067 -15.7332)" fill="#231F20" width="15.967" height="3.596"/>
	</g>
	<g>
		
			<rect x="351.585" y="154.008" transform="matrix(0.9809 0.1946 -0.1946 0.9809 37.2504 -67.6601)" fill="#231F20" width="22.974" height="3.596"/>
	</g>
</g>
<g>
	<path fill="#231F20" d="M100.847,169.938l1.724,16.919c0.304,2.982-1.874,5.653-4.811,5.952c-2.982,0.303-5.651-1.873-5.956-4.857
		l-1.724-16.919c-0.043-0.417,0.297-0.78,0.671-0.821l1.491-0.15c0.419-0.043,0.779,0.251,0.822,0.669l1.723,16.919
		c0.137,1.352,1.318,2.315,2.669,2.176c1.305-0.132,2.269-1.313,2.132-2.665l-1.725-16.918c-0.043-0.419,0.251-0.779,0.67-0.822
		l1.492-0.15C100.446,169.226,100.804,169.52,100.847,169.938z"/>
	<path fill="#231F20" d="M116.275,172.556l1.658,16.973c0.037,0.373-0.253,0.777-0.673,0.818l-1.492,0.146
		c-0.419,0.041-0.782-0.301-0.819-0.674l-1.658-16.971c-0.128-1.305-1.305-2.273-2.61-2.146c-1.352,0.133-2.318,1.309-2.191,2.615
		l1.657,16.973c0.037,0.371-0.253,0.777-0.672,0.818l-1.492,0.145c-0.419,0.041-0.782-0.299-0.819-0.672l-1.658-16.973
		c-0.287-2.938,1.9-5.598,4.884-5.891C113.327,167.431,115.988,169.621,116.275,172.556z"/>
	<path fill="#231F20" d="M131.5,171.769l0.572,12.309c0.139,2.994-2.135,5.539-5.13,5.678l-3.931,0.182
		c-0.796,0.039-1.53-0.631-1.566-1.428l-0.938-20.168c-0.039-0.842,0.632-1.529,1.429-1.568l3.929-0.182
		C128.861,166.453,131.361,168.775,131.5,171.769z M128.505,171.908c-0.062-1.355-1.189-2.383-2.5-2.32l-2.433,0.111l0.795,17.127
		l2.434-0.111c1.311-0.062,2.337-1.188,2.276-2.498L128.505,171.908z"/>
	<path fill="#231F20" d="M138.785,169.201l0.059,7.074l4.077-0.033c0.421-0.004,0.753,0.322,0.756,0.742l0.013,1.5
		c0.003,0.422-0.322,0.752-0.744,0.756l-4.076,0.033l0.059,7.121l4.076-0.033c0.422-0.004,0.753,0.322,0.756,0.744l0.014,1.498
		c0.003,0.422-0.322,0.754-0.744,0.756l-5.575,0.047c-0.843,0.008-1.505-0.689-1.511-1.488l-0.168-20.191
		c-0.007-0.844,0.644-1.506,1.486-1.512l5.576-0.047c0.421-0.004,0.752,0.322,0.755,0.744l0.013,1.5
		c0.003,0.422-0.322,0.752-0.743,0.756L138.785,169.201z"/>
	<path fill="#231F20" d="M158.373,174.068c-0.039,1.545-0.686,2.936-1.74,3.893c1.005,1.01,1.578,2.385,1.538,3.93l-0.182,6.977
		c-0.009,0.375-0.347,0.742-0.768,0.73l-1.499-0.039c-0.422-0.012-0.739-0.393-0.73-0.768l0.182-6.979
		c0.033-1.311-1.017-2.416-2.327-2.451l-2.388-0.062l-0.243,9.367c-0.01,0.375-0.394,0.74-0.769,0.73l-1.499-0.039
		c-0.422-0.012-0.739-0.395-0.73-0.77l0.544-20.934c0.021-0.842,0.693-1.48,1.537-1.459l3.887,0.1
		c2.997,0.078,5.323,2.576,5.246,5.525L158.373,174.068z M155.433,171.742c0.035-1.311-1.015-2.416-2.326-2.449l-2.388-0.062
		l-0.183,7.072l2.387,0.061c1.312,0.035,2.417-1.014,2.452-2.373L155.433,171.742z"/>
	<path fill="#231F20" d="M170.381,174.103l0.1-1.59c0.084-1.355-0.927-2.451-2.236-2.533s-2.45,0.881-2.534,2.236l-0.773,12.395
		c-0.083,1.309,0.926,2.451,2.234,2.533c1.31,0.08,2.453-0.926,2.535-2.236l0.301-4.816l-1.638-0.104
		c-0.42-0.025-0.727-0.373-0.704-0.748l0.094-1.496c0.026-0.422,0.374-0.729,0.795-0.701l3.883,0.242
		c0.421,0.025,0.728,0.375,0.701,0.795l-0.438,7.016c-0.185,2.945-2.766,5.18-5.712,4.994c-2.945-0.184-5.229-2.721-5.044-5.666
		l0.774-12.395c0.187-2.992,2.768-5.227,5.714-5.041c2.946,0.184,5.229,2.721,5.042,5.713l-0.099,1.59
		c-0.026,0.422-0.375,0.729-0.796,0.701l-1.497-0.092C170.662,174.873,170.355,174.525,170.381,174.103z"/>
	<path fill="#231F20" d="M187.28,176.181c-0.15,1.539-0.893,2.879-2.014,3.758c0.93,1.08,1.405,2.49,1.256,4.029l-0.677,6.947
		c-0.036,0.373-0.399,0.713-0.818,0.672l-1.493-0.145c-0.419-0.041-0.709-0.445-0.673-0.818l0.677-6.947
		c0.127-1.305-0.842-2.482-2.147-2.609l-2.377-0.23l-0.907,9.324c-0.037,0.373-0.446,0.711-0.819,0.674l-1.492-0.145
		c-0.419-0.041-0.71-0.447-0.673-0.818l2.029-20.844c0.08-0.838,0.798-1.428,1.637-1.346l3.869,0.377
		c2.984,0.291,5.127,2.945,4.841,5.883L187.28,176.181z M184.513,173.652c0.127-1.305-0.842-2.48-2.147-2.607l-2.377-0.232
		l-0.686,7.041l2.378,0.23c1.305,0.127,2.482-0.842,2.614-2.193L184.513,173.652z"/>
	<path fill="#231F20" d="M202.514,175.878l-1.674,12.256c-0.405,2.971-3.148,5.057-6.074,4.656
		c-2.971-0.404-5.055-3.148-4.649-6.121l1.674-12.254c0.398-2.924,3.141-5.01,6.112-4.604
		C200.829,170.21,202.913,172.955,202.514,175.878z M199.542,175.472c0.178-1.299-0.745-2.512-2.045-2.689
		c-1.346-0.184-2.56,0.738-2.737,2.039l-1.672,12.254c-0.184,1.346,0.737,2.561,2.083,2.744c1.3,0.178,2.514-0.744,2.697-2.092
		L199.542,175.472z"/>
	<path fill="#231F20" d="M218.285,173.875l-3.003,16.736c-0.529,2.951-3.357,4.92-6.263,4.4c-2.951-0.529-4.918-3.359-4.389-6.311
		l3.002-16.736c0.074-0.416,0.501-0.672,0.869-0.605l1.476,0.264c0.415,0.076,0.681,0.455,0.606,0.871l-3.003,16.736
		c-0.24,1.338,0.63,2.59,1.968,2.828c1.291,0.232,2.542-0.639,2.782-1.977l3.003-16.736c0.073-0.416,0.455-0.68,0.87-0.605
		l1.476,0.264C218.093,173.078,218.359,173.458,218.285,173.875z"/>
	<path fill="#231F20" d="M232.037,181.32l-2.904,16.807c-0.064,0.369-0.451,0.682-0.867,0.611l-1.477-0.255
		c-0.416-0.071-0.676-0.499-0.611-0.868l2.902-16.804c0.225-1.295-0.654-2.54-1.947-2.765c-1.338-0.23-2.584,0.648-2.809,1.941
		l-2.902,16.807c-0.064,0.368-0.45,0.682-0.866,0.609l-1.478-0.254c-0.415-0.073-0.675-0.498-0.611-0.868l2.904-16.806
		c0.502-2.907,3.317-4.895,6.272-4.385C230.552,175.596,232.539,178.412,232.037,181.32z"/>
	<path fill="#231F20" d="M246.888,184.472l-2.135,12.135c-0.521,2.953-3.297,4.938-6.25,4.42l-3.875-0.682
		c-0.785-0.139-1.355-0.953-1.217-1.736l3.498-19.889c0.146-0.83,0.953-1.355,1.736-1.217l3.877,0.682
		C245.476,178.705,247.408,181.519,246.888,184.472z M243.935,183.953c0.236-1.338-0.641-2.588-1.932-2.814l-2.4-0.422
		l-2.971,16.889l2.4,0.422c1.291,0.229,2.539-0.646,2.766-1.939L243.935,183.953z"/>
	<path fill="#231F20" d="M267.861,189.611c-0.188,1.533-0.959,2.809-2.148,3.654c0.951,1.107,1.385,2.578,1.195,4.111l-0.273,2.232
		c-0.363,2.977-3.078,5.1-6.008,4.74l-3.906-0.479c-0.838-0.104-1.404-0.881-1.307-1.672l2.455-20.043
		c0.104-0.838,0.834-1.408,1.672-1.307l3.904,0.479c2.932,0.359,5.053,3.074,4.688,6.051L267.861,189.611z M261.857,194.304
		l-2.418-0.297l-0.861,7.023l2.42,0.295c1.301,0.16,2.5-0.777,2.66-2.08l0.273-2.232
		C264.097,195.664,263.16,194.462,261.857,194.304z M265.156,187.015c0.166-1.35-0.773-2.551-2.074-2.711l-2.418-0.295l-0.859,7.021
		l2.418,0.295c1.301,0.16,2.502-0.777,2.662-2.08L265.156,187.015z"/>
	<path fill="#231F20" d="M282.291,190.937c-0.137,1.539-0.869,2.885-1.982,3.773c0.938,1.072,1.424,2.48,1.285,4.02l-0.621,6.951
		c-0.033,0.375-0.393,0.719-0.812,0.68l-1.494-0.133c-0.42-0.037-0.713-0.439-0.68-0.814l0.621-6.951
		c0.117-1.307-0.859-2.477-2.166-2.592l-2.379-0.213l-0.836,9.332c-0.031,0.373-0.439,0.713-0.812,0.68l-1.494-0.133
		c-0.418-0.039-0.713-0.441-0.68-0.814l1.867-20.857c0.074-0.84,0.785-1.436,1.625-1.359l3.873,0.346
		c2.986,0.268,5.15,2.906,4.887,5.846L282.291,190.937z M279.503,188.429c0.119-1.305-0.859-2.475-2.166-2.592l-2.379-0.213
		l-0.631,7.045l2.381,0.215c1.307,0.115,2.475-0.861,2.596-2.215L279.503,188.429z"/>
	<path fill="#231F20" d="M289.503,186.777l-0.428,7.061l4.068,0.248c0.42,0.025,0.729,0.373,0.703,0.793l-0.092,1.496
		c-0.025,0.422-0.373,0.729-0.793,0.703l-4.068-0.246l-0.43,7.109l4.068,0.246c0.42,0.025,0.729,0.373,0.703,0.793l-0.092,1.498
		c-0.025,0.42-0.373,0.727-0.793,0.701l-5.564-0.336c-0.842-0.051-1.455-0.793-1.406-1.588l1.221-20.156
		c0.051-0.842,0.744-1.457,1.586-1.406l5.566,0.338c0.42,0.025,0.727,0.371,0.701,0.793l-0.09,1.496
		c-0.025,0.422-0.373,0.729-0.793,0.703L289.503,186.777z"/>
	<path fill="#231F20" d="M316.738,185.576l-0.334,14.52c-0.025,1.123-0.377,2.145-0.959,2.977l-2.633,4.438
		c-0.145,0.184-0.383,0.367-0.664,0.359l-2.623-0.061c-0.281-0.006-0.51-0.199-0.646-0.391l-1.842-3.51l-2.045,3.422
		c-0.146,0.184-0.385,0.365-0.664,0.359l-2.623-0.061c-0.234-0.006-0.512-0.199-0.602-0.389l-2.473-4.555
		c-0.541-0.855-0.846-1.895-0.82-3.018l0.334-14.52c0.01-0.422,0.346-0.742,0.768-0.732l1.498,0.035
		c0.42,0.01,0.74,0.346,0.732,0.768l-0.334,14.518c-0.006,0.281,0.035,0.516,0.123,0.799l2.156,4.033l2.385-3.928
		c0.1-0.279,0.152-0.512,0.158-0.793l0.334-14.52c0.01-0.422,0.346-0.742,0.768-0.732l1.498,0.035
		c0.375,0.008,0.742,0.344,0.732,0.766l-0.334,14.52c-0.006,0.281,0.035,0.518,0.076,0.799l2.203,4.033l2.34-3.93
		c0.1-0.279,0.152-0.512,0.158-0.793l0.334-14.518c0.01-0.422,0.346-0.742,0.768-0.732l1.498,0.035
		C316.427,184.82,316.748,185.154,316.738,185.576z"/>
	<path fill="#231F20" d="M323.484,187.667l0.115,7.072l4.076-0.064c0.42-0.008,0.754,0.314,0.76,0.736l0.025,1.5
		c0.006,0.42-0.316,0.754-0.738,0.762l-4.074,0.064l0.115,7.119l4.074-0.064c0.422-0.008,0.754,0.314,0.762,0.736l0.023,1.5
		c0.008,0.422-0.316,0.754-0.736,0.762l-5.576,0.09c-0.842,0.014-1.51-0.68-1.521-1.475l-0.326-20.189
		c-0.014-0.842,0.633-1.51,1.477-1.523l5.572-0.09c0.424-0.006,0.756,0.316,0.764,0.738l0.023,1.5
		c0.006,0.42-0.316,0.754-0.738,0.76L323.484,187.667z"/>
	<path fill="#231F20" d="M342.894,191.609c0.078,1.545-0.459,2.979-1.438,4.014c1.078,0.932,1.756,2.258,1.834,3.803l0.354,6.973
		c0.02,0.373-0.289,0.764-0.711,0.785l-1.498,0.076c-0.422,0.021-0.768-0.336-0.787-0.711l-0.354-6.973
		c-0.066-1.311-1.197-2.332-2.508-2.266l-2.387,0.121l0.475,9.359c0.02,0.375-0.336,0.768-0.711,0.787l-1.496,0.076
		c-0.422,0.021-0.768-0.338-0.787-0.711l-1.061-20.918c-0.043-0.844,0.58-1.531,1.422-1.574l3.885-0.197
		c2.994-0.152,5.504,2.16,5.654,5.109L342.894,191.609z M339.785,189.515c-0.066-1.311-1.197-2.332-2.508-2.266l-2.387,0.121
		l0.359,7.066l2.387-0.121c1.309-0.068,2.332-1.199,2.262-2.557L339.785,189.515z"/>
	<path fill="#231F20" d="M356.46,183.435l0.715,6.85c0.258,2.471-1.16,4.691-3.328,5.576l0.996,9.553
		c0.039,0.373-0.295,0.785-0.668,0.824l-1.49,0.154c-0.42,0.045-0.785-0.295-0.824-0.668l-0.996-9.553
		c-2.352-0.414-4.195-2.293-4.453-4.764l-0.715-6.85c-0.045-0.418,0.248-0.779,0.668-0.822l1.49-0.156
		c0.42-0.043,0.779,0.248,0.824,0.668l0.713,6.85c0.141,1.352,1.326,2.311,2.678,2.17c1.305-0.137,2.264-1.32,2.123-2.672
		l-0.715-6.85c-0.043-0.418,0.248-0.779,0.668-0.822l1.492-0.156C356.058,182.724,356.417,183.015,356.46,183.435z"/>
</g>
</svg>
