<?xml version="1.0" encoding="utf-8"?>
<!-- Generator: Adobe Illustrator 16.0.0, SVG Export Plug-In . SVG Version: 6.00 Build 0)  -->
<!DOCTYPE svg PUBLIC "-//W3C//DTD SVG 1.1//EN" "http://www.w3.org/Graphics/SVG/1.1/DTD/svg11.dtd">
<svg version="1.1" id="Layer_1" xmlns="http://www.w3.org/2000/svg" xmlns:xlink="http://www.w3.org/1999/xlink" x="0px" y="0px"
	 width="720px" height="720px" viewBox="0 0 720 720" enable-background="new 0 0 720 720" xml:space="preserve">
<g>
	<circle fill="#FFFFFF" stroke="#C2B59B" stroke-width="5" stroke-miterlimit="10" cx="251.461" cy="149" r="67"/>
	<rect x="208" y="146.547" fill="#C2B59B" width="88" height="21.732"/>
	<path fill="#C2B59B" stroke="#FFFFFF" stroke-width="2" stroke-miterlimit="10" d="M208,159.335
		c-6.082,0-11.013,4.776-11.013,10.667h22.025C219.013,164.111,214.082,159.335,208,159.335z"/>
	<path fill="#C2B59B" stroke="#FFFFFF" stroke-width="2" stroke-miterlimit="10" d="M252,159.335
		c-6.082,0-11.013,4.776-11.013,10.667h22.025C263.013,164.111,258.082,159.335,252,159.335z"/>
	<path fill="#C2B59B" stroke="#FFFFFF" stroke-width="2" stroke-miterlimit="10" d="M296,159.335
		c-6.082,0-11.013,4.776-11.013,10.667h22.025C307.013,164.111,302.082,159.335,296,159.335z"/>
	<path fill="#C2B59B" d="M295.997,132.391c0-0.018,0.004-0.036,0.004-0.054c0-9.021-19.699-16.333-44-16.333s-44,7.313-44,16.333
		c0,0.018,0.003,0.036,0.004,0.054H295.997z"/>
	<path fill="#C2B59B" stroke="#FFFFFF" stroke-width="2" stroke-miterlimit="10" d="M287.99,138.667
		c-3.461,0-6.499,0.942-8.251,2.362c-1.752-1.42-4.79-2.362-8.252-2.362c-3.008,0-5.697,0.711-7.5,1.83
		c-1.804-1.119-4.493-1.83-7.501-1.83c-2.741,0-5.217,0.59-7,1.541c-1.783-0.95-4.26-1.541-7-1.541
		c-3.102,0-5.865,0.756-7.667,1.936c-1.802-1.179-4.565-1.936-7.667-1.936c-2.491,0-4.759,0.491-6.492,1.293
		c-1.733-0.802-4.001-1.293-6.493-1.293c-5.431,0-9.833,2.313-9.833,5.167s4.402,5.167,9.833,5.167c2.492,0,4.76-0.491,6.493-1.293
		c1.733,0.802,4.001,1.293,6.492,1.293c3.103,0,5.865-0.756,7.667-1.936c1.802,1.179,4.564,1.936,7.667,1.936
		c2.741,0,5.217-0.59,7-1.541c1.783,0.95,4.26,1.541,7,1.541c3.008,0,5.698-0.711,7.501-1.83c1.803,1.119,4.492,1.83,7.5,1.83
		c3.462,0,6.5-0.942,8.252-2.362c1.752,1.42,4.79,2.362,8.251,2.362c5.431,0,9.833-2.313,9.833-5.167
		S293.421,138.667,287.99,138.667z"/>
	
		<rect x="207.914" y="134.452" fill="#C2B59B" stroke="#FFFFFF" stroke-width="2.3484" stroke-miterlimit="10" width="87.095" height="6.359"/>
</g>
</svg>
