<?xml version="1.0" encoding="utf-8"?>
<!-- Generator: Adobe Illustrator 16.0.4, SVG Export Plug-In . SVG Version: 6.00 Build 0)  -->
<!DOCTYPE svg PUBLIC "-//W3C//DTD SVG 1.1//EN" "http://www.w3.org/Graphics/SVG/1.1/DTD/svg11.dtd">
<svg version="1.1" id="Layer_1" xmlns="http://www.w3.org/2000/svg" xmlns:xlink="http://www.w3.org/1999/xlink" x="0px" y="0px"
	 width="1187.5px" height="323.984px" viewBox="0 0 1187.5 323.984" enable-background="new 0 0 1187.5 323.984"
	 xml:space="preserve">
<g>
	<path fill="#231F20" stroke="#231F20" stroke-width="4.1653" stroke-miterlimit="10" d="M142.423,131.433
		c0,2.034,0.894,3.963,2.683,5.792c1.787,1.829,4,3.684,6.637,5.563c2.634,1.882,5.529,3.863,8.684,5.944
		c3.153,2.084,6.047,4.396,8.684,6.936c2.634,2.541,4.847,5.387,6.637,8.535c1.787,3.151,2.683,6.759,2.683,10.822v14.937
		c0,3.863-0.706,7.24-2.118,10.136s-3.296,5.285-5.648,7.164c-2.354,1.881-5.083,3.277-8.19,4.191s-6.403,1.372-9.884,1.372
		c-3.484,0-6.778-0.457-9.885-1.372c-3.106-0.915-5.813-2.31-8.119-4.191c-2.308-1.879-4.144-4.268-5.507-7.164
		c-1.366-2.896-2.048-6.273-2.048-10.136v-11.431h6.778c2.542,0,4.448,0.636,5.719,1.905c1.271,1.271,1.906,3.074,1.906,5.411v6.554
		c0,1.322,0.353,2.491,1.059,3.505c0.706,1.017,1.6,1.881,2.683,2.591c1.081,0.712,2.281,1.271,3.601,1.676
		c1.317,0.407,2.588,0.61,3.812,0.61c1.222,0,2.493-0.229,3.812-0.686c1.317-0.457,2.542-1.067,3.671-1.829
		c1.129-0.762,2.047-1.677,2.753-2.744s1.059-2.26,1.059-3.582v-16.156c0-3.354-0.872-6.223-2.612-8.612
		c-1.743-2.386-3.932-4.546-6.566-6.478c-2.636-1.929-5.485-3.834-8.542-5.716c-3.061-1.879-5.909-3.937-8.543-6.173
		c-2.637-2.234-4.825-4.852-6.566-7.85c-1.743-2.996-2.612-6.63-2.612-10.898V119.24c0-4.063,0.611-7.545,1.836-10.441
		c1.222-2.896,2.917-5.282,5.083-7.164c2.164-1.879,4.706-3.251,7.625-4.115c2.917-0.862,6.118-1.296,9.602-1.296
		c3.481,0,6.707,0.484,9.672,1.448c2.965,0.967,5.553,2.389,7.766,4.268c2.211,1.881,3.93,4.268,5.154,7.164
		c1.222,2.896,1.835,6.275,1.835,10.136v11.279h-6.354c-2.354,0-4.331-0.812-5.931-2.438c-1.602-1.625-2.4-3.658-2.4-6.097v-5.639
		c0-1.219-0.331-2.287-0.989-3.201c-0.66-0.915-1.482-1.65-2.471-2.21c-0.989-0.557-2.072-0.964-3.248-1.219
		c-1.178-0.252-2.237-0.381-3.177-0.381c-1.037,0-2.118,0.152-3.248,0.457c-1.129,0.305-2.213,0.762-3.248,1.372
		c-1.037,0.609-1.884,1.348-2.542,2.21c-0.66,0.864-0.988,1.855-0.988,2.972V131.433z"/>
	<path fill="#231F20" stroke="#231F20" stroke-width="4.1653" stroke-miterlimit="10" d="M247.338,98.892
		c0.847,1.067,1.271,2.872,1.271,5.411v4.725v8.383h-7.625c-1.319,0-2.354-0.481-3.106-1.448c-0.754-0.964-1.129-2.26-1.129-3.887
		c0-1.319-0.519-1.981-1.553-1.981h-6.919c-0.564,0-1.059,0.205-1.482,0.61c-0.424,0.407-0.635,1.067-0.635,1.981v84.288
		c0,1.017,0.141,1.729,0.423,2.134c0.283,0.407,0.658,0.814,1.13,1.22c0.752,0.609,1.482,1.474,2.188,2.591
		c0.706,1.12,1.059,2.541,1.059,4.268v4.42h-23.44v-4.42c0-1.727,0.375-3.148,1.129-4.268c0.752-1.117,1.505-1.981,2.259-2.591
		c0.375-0.405,0.706-0.812,0.989-1.22c0.282-0.405,0.423-1.117,0.423-2.134v-84.745c0-0.71-0.236-1.243-0.706-1.601
		c-0.472-0.355-0.942-0.534-1.412-0.534h-6.213c-0.377,0-0.825,0.153-1.341,0.458c-0.519,0.305-0.777,0.864-0.777,1.677
		c0,1.729-0.423,3.024-1.271,3.887c-0.847,0.864-2.4,1.295-4.66,1.295h-6.495v-9.298v-4.42c0-2.336,0.587-3.987,1.765-4.954
		c1.176-0.964,2.988-1.448,5.437-1.448h46.033C244.938,97.292,246.491,97.825,247.338,98.892z"/>
	<path fill="#231F20" stroke="#231F20" stroke-width="4.1653" stroke-miterlimit="10" d="M285.885,212.977
		c-3.484,0-6.731-0.457-9.743-1.372c-3.014-0.915-5.648-2.336-7.908-4.268c-2.259-1.929-4.024-4.344-5.295-7.24
		c-1.271-2.896-1.907-6.273-1.907-10.136V119.24c0-3.861,0.636-7.24,1.907-10.136c1.271-2.896,3.036-5.282,5.295-7.164
		c2.259-1.879,4.894-3.277,7.908-4.191c3.012-0.915,6.259-1.372,9.743-1.372c3.481,0,6.729,0.457,9.743,1.372
		c3.012,0.915,5.624,2.312,7.837,4.191c2.21,1.881,3.954,4.268,5.225,7.164c1.271,2.896,1.906,6.275,1.906,10.136v70.722
		c0,3.863-0.636,7.24-1.906,10.136c-1.271,2.896-3.014,5.311-5.225,7.24c-2.213,1.931-4.825,3.353-7.837,4.268
		C292.614,212.52,289.367,212.977,285.885,212.977z M296.758,119.849c0-2.031-0.331-3.734-0.988-5.106
		c-0.66-1.372-1.507-2.489-2.542-3.353c-1.037-0.862-2.189-1.498-3.46-1.905c-1.271-0.405-2.566-0.61-3.883-0.61
		c-1.319,0-2.637,0.205-3.954,0.61c-1.319,0.407-2.495,1.043-3.53,1.905c-1.037,0.864-1.884,1.981-2.542,3.353
		c-0.66,1.372-0.988,3.075-0.988,5.106v69.503c0,2.034,0.329,3.734,0.988,5.106c0.658,1.372,1.505,2.491,2.542,3.353
		c1.035,0.865,2.21,1.5,3.53,1.905c1.317,0.407,2.635,0.61,3.954,0.61c1.317,0,2.612-0.203,3.883-0.61
		c1.271-0.405,2.423-1.041,3.46-1.905c1.035-0.862,1.882-1.981,2.542-3.353c0.657-1.372,0.988-3.072,0.988-5.106V119.849z"/>
	<path fill="#231F20" stroke="#231F20" stroke-width="4.1653" stroke-miterlimit="10" d="M377.245,199.869
		c0.752,0.51,1.483,1.143,2.189,1.905c0.706,0.762,1.059,2.058,1.059,3.887v5.944h-11.72c-2.449,0-4.261-0.686-5.437-2.058
		c-1.178-1.372-1.765-3.175-1.765-5.411v-29.874c0-3.556-0.684-6.325-2.047-8.307c-1.366-1.981-3.554-2.972-6.566-2.972h-8.755
		c-1.225,0-1.835,0.712-1.835,2.134v31.855c0,1.017,0.141,1.729,0.423,2.134c0.282,0.407,0.611,0.814,0.988,1.22
		c0.752,0.609,1.505,1.474,2.259,2.591c0.752,1.12,1.13,2.541,1.13,4.268v4.42h-23.44v-4.42c0-1.727,0.375-3.148,1.129-4.268
		c0.752-1.117,1.505-1.981,2.259-2.591c0.375-0.405,0.706-0.812,0.988-1.22c0.283-0.405,0.424-1.117,0.424-2.134v-84.745
		c0-0.812-0.141-1.448-0.424-1.905c-0.282-0.458-0.613-0.786-0.988-0.991c-0.754-0.507-1.482-1.319-2.188-2.439
		c-0.706-1.117-1.059-2.744-1.059-4.877v-4.42h29.088c4.046,0,7.484,0.636,10.308,1.905c2.824,1.271,5.154,3.024,6.99,5.258
		c1.836,2.236,3.177,4.904,4.024,8.002c0.847,3.101,1.271,6.53,1.271,10.289v15.699c0,3.253-0.613,6.226-1.836,8.917
		c-1.224,2.694-2.824,4.904-4.801,6.63c-0.847,0.915-0.754,1.932,0.282,3.048c2.165,1.729,3.764,4.115,4.801,7.164
		c1.035,3.049,1.553,6.454,1.553,10.212v22.405c0,1.017,0.163,1.653,0.494,1.905C376.373,199.286,376.772,199.564,377.245,199.869z
		 M361.571,121.983c0-3.555-0.684-6.375-2.047-8.459c-1.366-2.082-3.554-3.125-6.566-3.125h-8.331c-1.507,0-2.259,0.712-2.259,2.134
		v36.276c0,0.509,0.188,0.915,0.564,1.219c0.375,0.305,0.752,0.457,1.13,0.457h8.896c3.012,0,5.2-1.067,6.566-3.201
		c1.363-2.134,2.047-4.978,2.047-8.536V121.983z"/>
	<path fill="#231F20" stroke="#231F20" stroke-width="4.1653" stroke-miterlimit="10" d="M479.546,106.513
		c-0.519,1.067-1.059,1.905-1.624,2.515c-0.754,0.712-1.553,1.22-2.4,1.524v85.812c0,1.017,0.141,1.729,0.424,2.134
		c0.282,0.407,0.657,0.762,1.129,1.067c0.752,0.609,1.505,1.474,2.259,2.591c0.752,1.12,1.13,2.644,1.13,4.573v4.877h-23.158v-5.03
		c0-1.727,0.375-3.148,1.129-4.268c0.752-1.117,1.505-1.981,2.259-2.591c0.47-0.305,0.847-0.66,1.13-1.067
		c0.282-0.405,0.423-1.117,0.423-2.134v-62.339c0-0.203-0.119-0.381-0.353-0.534c-0.236-0.152-0.448,0.026-0.635,0.534
		c-3.484,6.707-6.59,12.803-9.319,18.29c-1.225,2.339-2.401,4.649-3.53,6.935c-1.13,2.287-2.167,4.396-3.106,6.326
		c-0.942,1.931-1.743,3.558-2.401,4.877c-0.66,1.322-1.037,2.134-1.129,2.438c-0.282,0.712-0.872,1.246-1.765,1.601
		c-0.896,0.357-1.884,0.533-2.965,0.533c-1.083,0-2.072-0.176-2.965-0.533c-0.896-0.355-1.482-0.838-1.765-1.448
		c-0.189-0.305-0.589-1.117-1.2-2.438c-0.613-1.319-1.39-2.92-2.33-4.801c-0.942-1.879-2.001-3.987-3.177-6.325
		c-1.178-2.336-2.33-4.673-3.459-7.012c-2.731-5.587-5.79-11.736-9.179-18.442c-0.095-0.203-0.211-0.305-0.353-0.305
		c-0.141,0-0.211,0.205-0.211,0.609v62.339v0.152c0,1.017,0.117,1.729,0.353,2.134c0.234,0.407,0.587,0.762,1.059,1.067
		c0.752,0.61,1.504,1.475,2.259,2.591c0.752,1.119,1.129,2.541,1.129,4.268v4.573h-23.581v-4.573c0-1.727,0.375-3.148,1.129-4.268
		c0.752-1.117,1.505-1.981,2.259-2.591c0.47-0.305,0.847-0.66,1.13-1.067c0.282-0.405,0.423-1.117,0.423-2.134v-86.421
		c-0.942-0.305-1.743-0.812-2.4-1.524c-0.66-0.609-1.225-1.448-1.694-2.515c-0.472-1.067-0.706-2.462-0.706-4.191v-4.725h14.685
		c0.565,0,1.152,0.205,1.765,0.609c0.611,0.408,1.059,0.967,1.342,1.677c0.657,1.729,1.694,4.191,3.106,7.393
		c1.412,3.201,3.012,6.732,4.801,10.593c1.787,3.863,3.647,7.8,5.578,11.812c1.928,4.016,3.718,7.697,5.366,11.05
		c1.646,3.354,3.012,6.149,4.095,8.383c1.081,2.236,1.716,3.456,1.906,3.658c0.188,0.509,0.399,0.712,0.635,0.609
		c0.234-0.1,0.446-0.305,0.635-0.609c0-0.1,0.399-0.915,1.201-2.439c0.798-1.524,1.787-3.556,2.965-6.097
		c1.176-2.539,2.542-5.385,4.095-8.536c1.553-3.148,3.128-6.349,4.73-9.602l12.708-26.216c0.375-0.915,0.847-1.524,1.412-1.829
		c0.564-0.305,1.222-0.457,1.977-0.457h13.556v4.725C480.322,104.05,480.062,105.446,479.546,106.513z"/>
	<path fill="#231F20" stroke="#231F20" stroke-width="4.1653" stroke-miterlimit="10" d="M551.49,97.596
		c4.047,0,7.484,0.586,10.308,1.753c2.824,1.169,5.154,2.819,6.99,4.954c1.836,2.134,3.177,4.725,4.024,7.773
		c0.847,3.049,1.271,6.454,1.271,10.212v64.473c0,7.521-1.765,13.542-5.295,18.062c-3.53,4.522-9.298,6.783-17.298,6.783h-30.359
		v-4.115c0-2.234,0.282-3.937,0.847-5.106c0.564-1.167,1.317-2.005,2.259-2.515c1.129-0.709,1.694-1.776,1.694-3.201v-84.135
		c0-0.915-0.19-1.65-0.565-2.21c-0.377-0.558-0.801-0.938-1.271-1.143c-0.942-0.507-1.673-1.32-2.189-2.439
		c-0.519-1.117-0.776-2.691-0.776-4.725v-4.42H551.49z M560.104,121.983c0-3.555-0.684-6.401-2.047-8.535
		c-1.366-2.134-3.555-3.201-6.566-3.201h-9.743c-0.659,0-1.154,0.229-1.482,0.686c-0.331,0.458-0.494,0.941-0.494,1.448v84.592
		c0,0.51,0.141,0.991,0.424,1.448c0.282,0.457,0.657,0.686,1.129,0.686h10.167c3.012,0,5.2-1.067,6.566-3.201
		c1.363-2.134,2.047-4.978,2.047-8.535V121.983z"/>
	<path fill="#231F20" stroke="#231F20" stroke-width="4.1653" stroke-miterlimit="10" d="M640.73,199.869
		c0.752,0.51,1.482,1.143,2.188,1.905s1.059,2.058,1.059,3.887v5.944h-11.72c-2.449,0-4.261-0.686-5.437-2.058
		c-1.178-1.372-1.765-3.175-1.765-5.411v-29.874c0-3.556-0.685-6.325-2.048-8.307c-1.366-1.981-3.555-2.972-6.566-2.972h-8.755
		c-1.224,0-1.835,0.712-1.835,2.134v31.855c0,1.017,0.141,1.729,0.424,2.134c0.282,0.407,0.61,0.814,0.988,1.22
		c0.752,0.609,1.505,1.474,2.259,2.591c0.753,1.12,1.13,2.541,1.13,4.268v4.42h-23.44v-4.42c0-1.727,0.375-3.148,1.13-4.268
		c0.752-1.117,1.505-1.981,2.26-2.591c0.375-0.405,0.706-0.812,0.988-1.22c0.282-0.405,0.424-1.117,0.424-2.134v-84.745
		c0-0.812-0.142-1.448-0.424-1.905c-0.282-0.458-0.613-0.786-0.988-0.991c-0.755-0.507-1.483-1.319-2.189-2.439
		c-0.706-1.117-1.059-2.744-1.059-4.877v-4.42h29.088c4.047,0,7.484,0.636,10.309,1.905c2.824,1.271,5.153,3.024,6.989,5.258
		c1.836,2.236,3.178,4.904,4.024,8.002c0.848,3.101,1.271,6.53,1.271,10.289v15.699c0,3.253-0.613,6.226-1.835,8.917
		c-1.225,2.694-2.824,4.904-4.802,6.63c-0.847,0.915-0.754,1.932,0.283,3.048c2.164,1.729,3.764,4.115,4.801,7.164
		c1.034,3.049,1.553,6.454,1.553,10.212v22.405c0,1.017,0.164,1.653,0.495,1.905C639.858,199.286,640.258,199.564,640.73,199.869z
		 M625.057,121.983c0-3.555-0.685-6.375-2.048-8.459c-1.366-2.082-3.555-3.125-6.566-3.125h-8.331c-1.507,0-2.259,0.712-2.259,2.134
		v36.276c0,0.509,0.188,0.915,0.564,1.219c0.375,0.305,0.753,0.457,1.13,0.457h8.896c3.012,0,5.2-1.067,6.566-3.201
		c1.363-2.134,2.048-4.978,2.048-8.536V121.983z"/>
	<path fill="#231F20" stroke="#231F20" stroke-width="4.1653" stroke-miterlimit="10" d="M716.415,200.174
		c0.752,0.51,1.482,1.398,2.188,2.667c0.706,1.272,1.06,2.77,1.06,4.497v4.268h-23.582v-4.115c0-1.829,0.329-3.301,0.989-4.42
		c0.657-1.117,1.363-1.929,2.117-2.438c0.471-0.405,0.87-0.812,1.2-1.219c0.329-0.405,0.495-1.067,0.495-1.981
		c-0.19-1.929-0.424-3.708-0.706-5.335c-0.19-1.422-0.378-2.767-0.565-4.039c-0.189-1.269-0.282-2.158-0.282-2.667
		c-0.189-1.22-0.564-2.032-1.13-2.439c-0.564-0.405-1.271-0.61-2.118-0.61h-16.097c-1.508,0-2.354,1.017-2.542,3.049
		c-0.095,0.509-0.166,1.398-0.212,2.667c-0.049,1.272-0.165,2.617-0.353,4.039c-0.19,1.627-0.378,3.406-0.565,5.335
		c0,0.915,0.093,1.577,0.282,1.981c0.188,0.407,0.517,0.814,0.988,1.219c0.753,0.51,1.459,1.322,2.118,2.438
		c0.658,1.12,0.989,2.591,0.989,4.42v4.115h-23.582v-3.963c0-1.727,0.354-3.277,1.06-4.649c0.706-1.372,1.434-2.31,2.188-2.82
		c0.47-0.405,0.894-0.838,1.271-1.295c0.375-0.457,0.658-1.091,0.848-1.905c2.634-15.646,5.035-29.619,7.201-41.915
		c0.94-5.282,1.836-10.441,2.683-15.471c0.848-5.03,1.624-9.526,2.33-13.489s1.271-7.164,1.694-9.603
		c0.424-2.439,0.636-3.708,0.636-3.811c0.093-0.812,0.142-1.548,0.142-2.21c0-0.66-0.236-1.091-0.706-1.295
		c-2.354-1.015-3.53-3.708-3.53-8.079v-3.505h18.922c2.164,0,3.904,0.686,5.225,2.058c1.316,1.372,2.069,2.972,2.259,4.801
		c0,0.407,0.233,2.034,0.706,4.877c0.47,2.846,1.059,6.478,1.765,10.898c0.706,4.42,1.505,9.374,2.401,14.861
		c0.894,5.487,1.811,11.077,2.753,16.766c2.164,13.312,4.611,28.35,7.343,45.116c0.188,0.814,0.47,1.448,0.848,1.905
		C715.52,199.336,715.942,199.769,716.415,200.174z M694.952,169.69c0.657,0,1.176-0.252,1.553-0.762
		c0.375-0.507,0.517-1.067,0.424-1.677c0-0.1-0.142-0.964-0.424-2.591c-0.282-1.625-0.613-3.708-0.988-6.25
		c-0.377-2.539-0.801-5.411-1.271-8.611c-0.473-3.201-0.989-6.478-1.554-9.831l-4.236-26.521h-0.282l-4.236,26.521
		c-0.564,3.353-1.083,6.63-1.553,9.831c-0.473,3.201-0.896,6.073-1.271,8.611c-0.377,2.541-0.684,4.625-0.918,6.25
		c-0.235,1.626-0.353,2.491-0.353,2.591c-0.095,0.712,0.046,1.296,0.424,1.753c0.375,0.457,0.847,0.686,1.412,0.686H694.952z"/>
	<path fill="#231F20" stroke="#231F20" stroke-width="4.1653" stroke-miterlimit="10" d="M752.279,196.821v0.305
		c0,0.915,0.142,1.577,0.424,1.981c0.282,0.407,0.611,0.762,0.988,1.067c0.753,0.61,1.505,1.475,2.26,2.591
		c0.752,1.119,1.13,2.541,1.13,4.268v4.573h-23.582v-4.573c0-1.727,0.329-3.125,0.988-4.191c0.658-1.067,1.459-1.955,2.401-2.667
		c0.47-0.305,0.822-0.66,1.059-1.067c0.234-0.405,0.354-1.067,0.354-1.981v-0.305v-84.44c0-1.015-0.119-1.727-0.354-2.134
		c-0.236-0.405-0.589-0.812-1.059-1.22c-0.755-0.609-1.508-1.472-2.26-2.591c-0.755-1.117-1.13-2.539-1.13-4.268v-4.42h23.582v4.42
		c0,1.729-0.378,3.151-1.13,4.268c-0.755,1.119-1.507,1.981-2.26,2.591c-0.472,0.407-0.825,0.814-1.059,1.22
		c-0.236,0.407-0.354,1.119-0.354,2.134V196.821z"/>
	<path fill="#231F20" stroke="#231F20" stroke-width="4.1653" stroke-miterlimit="10" d="M828.811,97.596v4.42
		c0,1.729-0.377,3.151-1.13,4.268c-0.754,1.119-1.507,1.981-2.259,2.591c-0.378,0.407-0.685,0.814-0.918,1.219
		c-0.236,0.408-0.401,1.067-0.494,1.981v95.567c0,1.017-0.282,1.932-0.848,2.744c-0.564,0.814-1.412,1.219-2.541,1.219h-8.19
		c-1.225,0-2.096-0.557-2.612-1.677c-0.519-1.117-1.013-2.539-1.482-4.268c-0.189-0.507-0.801-2.515-1.836-6.021
		c-1.037-3.506-2.283-7.721-3.742-12.651c-1.46-4.927-3.014-10.186-4.659-15.775c-1.648-5.587-3.178-10.769-4.59-15.546
		c-1.412-4.775-2.59-8.764-3.529-11.965c-0.942-3.201-1.412-4.851-1.412-4.954c-0.096-0.202-0.19-0.354-0.283-0.457
		c-0.095-0.1-0.141,0.152-0.141,0.762v57.767c0,1.119,0.141,1.881,0.424,2.286c0.282,0.407,0.657,0.762,1.129,1.067
		c0.753,0.61,1.483,1.475,2.189,2.591c0.706,1.119,1.059,2.541,1.059,4.268v4.573h-22.028v-4.573c0-1.727,0.375-3.148,1.13-4.268
		c0.752-1.117,1.505-1.981,2.26-2.591c0.375-0.305,0.706-0.66,0.988-1.067c0.282-0.405,0.424-1.117,0.424-2.134v-85.964
		c-0.942-0.405-1.743-0.964-2.401-1.676c-0.659-0.61-1.225-1.448-1.694-2.515c-0.472-1.067-0.706-2.462-0.706-4.191v-5.03h15.956
		c1.13,0,1.978,0.281,2.542,0.838c0.565,0.56,0.988,1.348,1.271,2.362c0,0.205,0.47,1.932,1.411,5.182
		c0.94,3.253,2.118,7.292,3.53,12.118c1.412,4.827,2.941,10.112,4.59,15.852c1.646,5.742,3.199,11.229,4.659,16.461
		c1.459,5.235,2.754,9.831,3.884,13.794c1.129,3.963,1.882,6.606,2.259,7.926c0.093,0.205,0.212,0.407,0.354,0.61
		c0.141,0.205,0.211,0.152,0.211-0.152v-60.358c0-1.015-0.141-1.727-0.423-2.134c-0.282-0.405-0.613-0.812-0.988-1.219
		c-0.755-0.609-1.508-1.472-2.26-2.591c-0.755-1.117-1.13-2.539-1.13-4.268v-4.42H828.811z"/>
	<path fill="#231F20" stroke="#231F20" stroke-width="4.1653" stroke-miterlimit="10" d="M888.258,196.821v0.305
		c0,0.915,0.142,1.577,0.424,1.981c0.282,0.407,0.611,0.762,0.988,1.067c0.753,0.61,1.505,1.475,2.26,2.591
		c0.752,1.119,1.13,2.541,1.13,4.268v4.573h-23.582v-4.573c0-1.727,0.329-3.125,0.988-4.191c0.658-1.067,1.459-1.955,2.401-2.667
		c0.47-0.305,0.822-0.66,1.059-1.067c0.234-0.405,0.354-1.067,0.354-1.981v-0.305v-84.44c0-1.015-0.119-1.727-0.354-2.134
		c-0.236-0.405-0.589-0.812-1.059-1.22c-0.755-0.609-1.508-1.472-2.26-2.591c-0.755-1.117-1.13-2.539-1.13-4.268v-4.42h23.582v4.42
		c0,1.729-0.378,3.151-1.13,4.268c-0.755,1.119-1.507,1.981-2.26,2.591c-0.472,0.407-0.825,0.814-1.059,1.22
		c-0.236,0.407-0.354,1.119-0.354,2.134V196.821z"/>
	<path fill="#231F20" stroke="#231F20" stroke-width="4.1653" stroke-miterlimit="10" d="M914.238,199.869v9.603
		c0,0.814-0.706,1.448-2.118,1.905c-1.412,0.457-3.248,0.686-5.507,0.686c-2.26,0-4.073-0.178-5.437-0.533
		c-1.366-0.355-2.048-0.938-2.048-1.753v-0.305v-9.298c0-0.914,0.706-1.548,2.118-1.905c1.412-0.355,3.199-0.534,5.366-0.534
		c2.259,0,4.095,0.179,5.507,0.534C913.532,198.626,914.238,199.16,914.238,199.869z"/>
	<path fill="#231F20" stroke="#231F20" stroke-width="4.1653" stroke-miterlimit="10" d="M950.669,97.596
		c8,0,13.743,2.236,17.228,6.707c3.481,4.472,5.225,10.517,5.225,18.138v16.614c0,7.621-1.743,13.591-5.225,17.909
		c-3.484,4.32-9.228,6.478-17.228,6.478h-9.179c-1.319,0-1.977,0.61-1.977,1.829v31.703c0,1.017,0.117,1.729,0.354,2.134
		c0.233,0.407,0.587,0.814,1.059,1.22c0.752,0.609,1.505,1.474,2.26,2.591c0.752,1.12,1.129,2.541,1.129,4.268v4.42h-23.581v-4.42
		c0-1.727,0.375-3.148,1.13-4.268c0.752-1.117,1.505-1.981,2.259-2.591c0.471-0.405,0.823-0.812,1.06-1.22
		c0.233-0.405,0.353-1.117,0.353-2.134v-84.592c0-1.524-0.613-2.641-1.835-3.354c-0.942-0.609-1.743-1.524-2.401-2.743
		c-0.659-1.22-0.988-2.844-0.988-4.877v-3.811H950.669z M959.142,122.136c0-3.556-0.685-6.402-2.048-8.536
		c-1.365-2.134-3.508-3.201-6.425-3.201h-8.896c-0.565,0-1.084,0.179-1.554,0.533c-0.472,0.357-0.706,0.891-0.706,1.601v35.971
		c0,1.424,0.611,2.134,1.836,2.134h9.319c2.917,0,5.06-1.067,6.425-3.201c1.363-2.134,2.048-4.978,2.048-8.535V122.136z"/>
	<path fill="#231F20" stroke="#231F20" stroke-width="4.1653" stroke-miterlimit="10" d="M972.415,199.869v9.603
		c0,0.814-0.706,1.448-2.118,1.905c-1.412,0.457-3.248,0.686-5.507,0.686c-2.26,0-4.073-0.178-5.437-0.533
		c-1.366-0.355-2.048-0.938-2.048-1.753v-0.305v-9.298c0-0.914,0.706-1.548,2.118-1.905c1.412-0.355,3.199-0.534,5.366-0.534
		c2.259,0,4.095,0.179,5.507,0.534C971.709,198.626,972.415,199.16,972.415,199.869z"/>
	<path fill="#231F20" stroke="#231F20" stroke-width="4.1653" stroke-miterlimit="10" d="M1037.793,200.174
		c0.752,0.51,1.482,1.398,2.188,2.667c0.706,1.272,1.06,2.77,1.06,4.497v4.268h-23.582v-4.115c0-1.829,0.329-3.301,0.989-4.42
		c0.657-1.117,1.363-1.929,2.117-2.438c0.471-0.405,0.87-0.812,1.2-1.219c0.329-0.405,0.495-1.067,0.495-1.981
		c-0.19-1.929-0.424-3.708-0.706-5.335c-0.19-1.422-0.378-2.767-0.565-4.039c-0.189-1.269-0.282-2.158-0.282-2.667
		c-0.189-1.22-0.564-2.032-1.13-2.439c-0.564-0.405-1.271-0.61-2.118-0.61h-16.097c-1.508,0-2.354,1.017-2.542,3.049
		c-0.095,0.509-0.166,1.398-0.212,2.667c-0.049,1.272-0.165,2.617-0.353,4.039c-0.19,1.627-0.378,3.406-0.565,5.335
		c0,0.915,0.093,1.577,0.282,1.981c0.188,0.407,0.517,0.814,0.988,1.219c0.753,0.51,1.459,1.322,2.118,2.438
		c0.658,1.12,0.989,2.591,0.989,4.42v4.115h-23.582v-3.963c0-1.727,0.354-3.277,1.06-4.649c0.706-1.372,1.434-2.31,2.188-2.82
		c0.47-0.405,0.894-0.838,1.271-1.295c0.375-0.457,0.658-1.091,0.848-1.905c2.634-15.646,5.035-29.619,7.201-41.915
		c0.94-5.282,1.836-10.441,2.683-15.471c0.848-5.03,1.624-9.526,2.33-13.489s1.271-7.164,1.694-9.603
		c0.424-2.439,0.636-3.708,0.636-3.811c0.093-0.812,0.142-1.548,0.142-2.21c0-0.66-0.236-1.091-0.706-1.295
		c-2.354-1.015-3.53-3.708-3.53-8.079v-3.505h18.922c2.164,0,3.904,0.686,5.225,2.058c1.316,1.372,2.069,2.972,2.259,4.801
		c0,0.407,0.233,2.034,0.706,4.877c0.47,2.846,1.059,6.478,1.765,10.898c0.706,4.42,1.505,9.374,2.401,14.861
		c0.894,5.487,1.811,11.077,2.753,16.766c2.164,13.312,4.611,28.35,7.343,45.116c0.188,0.814,0.47,1.448,0.848,1.905
		C1036.897,199.336,1037.32,199.769,1037.793,200.174z M1016.33,169.69c0.657,0,1.176-0.252,1.553-0.762
		c0.375-0.507,0.517-1.067,0.424-1.677c0-0.1-0.142-0.964-0.424-2.591c-0.282-1.625-0.613-3.708-0.988-6.25
		c-0.377-2.539-0.801-5.411-1.271-8.611c-0.473-3.201-0.989-6.478-1.554-9.831l-4.236-26.521h-0.282l-4.236,26.521
		c-0.564,3.353-1.083,6.63-1.553,9.831c-0.473,3.201-0.896,6.073-1.271,8.611c-0.377,2.541-0.684,4.625-0.918,6.25
		c-0.235,1.626-0.353,2.491-0.353,2.591c-0.095,0.712,0.046,1.296,0.424,1.753c0.375,0.457,0.847,0.686,1.412,0.686H1016.33z"/>
</g>
<g>
	<path fill="#FFFFFF" stroke="#231F20" stroke-width="3.7025" stroke-miterlimit="10" d="M135.021,123.47
		c0,2.034,0.894,3.963,2.683,5.792c1.787,1.829,4,3.684,6.637,5.563c2.634,1.882,5.529,3.863,8.684,5.944
		c3.153,2.084,6.047,4.396,8.684,6.936c2.634,2.541,4.847,5.387,6.637,8.535c1.787,3.151,2.683,6.759,2.683,10.822v14.937
		c0,3.863-0.706,7.24-2.118,10.136s-3.296,5.285-5.648,7.164c-2.354,1.881-5.083,3.277-8.19,4.191s-6.403,1.372-9.884,1.372
		c-3.484,0-6.778-0.457-9.885-1.372c-3.106-0.915-5.813-2.31-8.119-4.191c-2.308-1.879-4.144-4.268-5.507-7.164
		c-1.366-2.896-2.048-6.273-2.048-10.136v-11.431h6.778c2.542,0,4.448,0.636,5.719,1.905c1.271,1.271,1.906,3.074,1.906,5.411v6.554
		c0,1.322,0.353,2.491,1.059,3.505c0.706,1.017,1.6,1.881,2.683,2.591c1.081,0.712,2.281,1.271,3.601,1.676
		c1.317,0.407,2.588,0.61,3.812,0.61c1.222,0,2.493-0.229,3.812-0.686c1.317-0.457,2.542-1.067,3.671-1.829
		c1.129-0.762,2.047-1.677,2.753-2.744s1.059-2.26,1.059-3.582v-16.156c0-3.354-0.872-6.223-2.612-8.612
		c-1.743-2.386-3.932-4.546-6.566-6.478c-2.636-1.929-5.485-3.834-8.542-5.716c-3.061-1.879-5.909-3.937-8.543-6.173
		c-2.637-2.234-4.825-4.852-6.566-7.85c-1.743-2.996-2.612-6.63-2.612-10.898v-10.822c0-4.063,0.611-7.545,1.836-10.441
		c1.222-2.896,2.917-5.282,5.083-7.164c2.164-1.879,4.706-3.251,7.625-4.115c2.917-0.862,6.118-1.296,9.602-1.296
		c3.481,0,6.707,0.484,9.672,1.448c2.965,0.967,5.553,2.389,7.766,4.268c2.211,1.881,3.93,4.268,5.154,7.164
		c1.222,2.896,1.835,6.275,1.835,10.136v11.279h-6.354c-2.354,0-4.331-0.812-5.931-2.438c-1.602-1.625-2.4-3.658-2.4-6.097v-5.639
		c0-1.219-0.331-2.287-0.989-3.201c-0.66-0.915-1.482-1.65-2.471-2.21c-0.989-0.557-2.072-0.964-3.248-1.219
		c-1.178-0.252-2.237-0.381-3.177-0.381c-1.037,0-2.118,0.152-3.248,0.457c-1.129,0.305-2.213,0.762-3.248,1.372
		c-1.037,0.609-1.884,1.348-2.542,2.21c-0.66,0.864-0.988,1.855-0.988,2.972V123.47z"/>
	<path fill="#FFFFFF" stroke="#231F20" stroke-width="3.7025" stroke-miterlimit="10" d="M239.937,90.929
		c0.847,1.067,1.271,2.872,1.271,5.411v4.725v8.383h-7.625c-1.319,0-2.354-0.481-3.106-1.448c-0.754-0.964-1.129-2.26-1.129-3.887
		c0-1.319-0.519-1.981-1.553-1.981h-6.919c-0.564,0-1.059,0.205-1.482,0.61c-0.424,0.407-0.635,1.067-0.635,1.981v84.288
		c0,1.017,0.141,1.729,0.423,2.134c0.283,0.407,0.658,0.814,1.13,1.22c0.752,0.609,1.482,1.474,2.188,2.591
		c0.706,1.12,1.059,2.541,1.059,4.268v4.42h-23.44v-4.42c0-1.727,0.375-3.148,1.129-4.268c0.752-1.117,1.505-1.981,2.259-2.591
		c0.375-0.405,0.706-0.812,0.989-1.22c0.282-0.405,0.423-1.117,0.423-2.134v-84.745c0-0.71-0.236-1.243-0.706-1.601
		c-0.472-0.355-0.942-0.534-1.412-0.534h-6.213c-0.377,0-0.825,0.153-1.341,0.458c-0.519,0.305-0.777,0.864-0.777,1.677
		c0,1.729-0.423,3.024-1.271,3.887c-0.847,0.864-2.4,1.295-4.66,1.295h-6.495v-9.298v-4.42c0-2.336,0.587-3.987,1.765-4.954
		c1.176-0.964,2.988-1.448,5.437-1.448h46.033C237.536,89.329,239.089,89.862,239.937,90.929z"/>
	<path fill="#FFFFFF" stroke="#231F20" stroke-width="3.7025" stroke-miterlimit="10" d="M278.484,205.014
		c-3.484,0-6.731-0.457-9.743-1.372c-3.014-0.915-5.648-2.336-7.908-4.268c-2.259-1.929-4.024-4.344-5.295-7.24
		c-1.271-2.896-1.907-6.273-1.907-10.136v-70.722c0-3.861,0.636-7.24,1.907-10.136c1.271-2.896,3.036-5.282,5.295-7.164
		c2.259-1.879,4.894-3.277,7.908-4.191c3.012-0.915,6.259-1.372,9.743-1.372c3.481,0,6.729,0.457,9.743,1.372
		c3.012,0.915,5.624,2.312,7.837,4.191c2.21,1.881,3.954,4.268,5.225,7.164c1.271,2.896,1.906,6.275,1.906,10.136v70.722
		c0,3.863-0.636,7.24-1.906,10.136c-1.271,2.896-3.014,5.311-5.225,7.24c-2.213,1.931-4.825,3.353-7.837,4.268
		C285.213,204.557,281.965,205.014,278.484,205.014z M289.356,111.886c0-2.031-0.331-3.734-0.988-5.106
		c-0.66-1.372-1.507-2.489-2.542-3.353c-1.037-0.862-2.189-1.498-3.46-1.905c-1.271-0.405-2.566-0.61-3.883-0.61
		c-1.319,0-2.637,0.205-3.954,0.61c-1.319,0.407-2.495,1.043-3.53,1.905c-1.037,0.864-1.884,1.981-2.542,3.353
		c-0.66,1.372-0.988,3.075-0.988,5.106v69.503c0,2.034,0.329,3.734,0.988,5.106c0.658,1.372,1.505,2.491,2.542,3.353
		c1.035,0.865,2.21,1.5,3.53,1.905c1.317,0.407,2.635,0.61,3.954,0.61c1.317,0,2.612-0.203,3.883-0.61
		c1.271-0.405,2.423-1.041,3.46-1.905c1.035-0.862,1.882-1.981,2.542-3.353c0.657-1.372,0.988-3.072,0.988-5.106V111.886z"/>
	<path fill="#FFFFFF" stroke="#231F20" stroke-width="3.7025" stroke-miterlimit="10" d="M369.843,191.906
		c0.752,0.51,1.483,1.143,2.189,1.905c0.706,0.762,1.059,2.058,1.059,3.887v5.944h-11.72c-2.449,0-4.261-0.686-5.437-2.058
		c-1.178-1.372-1.765-3.175-1.765-5.411V166.3c0-3.556-0.684-6.325-2.047-8.307c-1.366-1.981-3.554-2.972-6.566-2.972h-8.755
		c-1.225,0-1.835,0.712-1.835,2.134v31.855c0,1.017,0.141,1.729,0.423,2.134c0.282,0.407,0.611,0.814,0.988,1.22
		c0.752,0.609,1.505,1.474,2.259,2.591c0.752,1.12,1.13,2.541,1.13,4.268v4.42h-23.44v-4.42c0-1.727,0.375-3.148,1.129-4.268
		c0.752-1.117,1.505-1.981,2.259-2.591c0.375-0.405,0.706-0.812,0.988-1.22c0.283-0.405,0.424-1.117,0.424-2.134v-84.745
		c0-0.812-0.141-1.448-0.424-1.905c-0.282-0.458-0.613-0.786-0.988-0.991c-0.754-0.507-1.482-1.319-2.188-2.439
		c-0.706-1.117-1.059-2.744-1.059-4.877v-4.42h29.088c4.046,0,7.484,0.636,10.308,1.905c2.824,1.271,5.154,3.024,6.99,5.258
		c1.836,2.236,3.177,4.904,4.024,8.002c0.847,3.101,1.271,6.53,1.271,10.289v15.699c0,3.253-0.613,6.226-1.836,8.917
		c-1.224,2.694-2.824,4.904-4.801,6.63c-0.847,0.915-0.754,1.932,0.282,3.048c2.165,1.729,3.764,4.115,4.801,7.164
		c1.035,3.049,1.553,6.454,1.553,10.212v22.405c0,1.017,0.163,1.653,0.494,1.905C368.972,191.323,369.371,191.602,369.843,191.906z
		 M354.169,114.02c0-3.555-0.684-6.375-2.047-8.459c-1.366-2.082-3.554-3.125-6.566-3.125h-8.331c-1.507,0-2.259,0.712-2.259,2.134
		v36.276c0,0.509,0.188,0.915,0.564,1.219c0.375,0.305,0.752,0.457,1.13,0.457h8.896c3.012,0,5.2-1.067,6.566-3.201
		c1.363-2.134,2.047-4.978,2.047-8.536V114.02z"/>
	<path fill="#FFFFFF" stroke="#231F20" stroke-width="3.7025" stroke-miterlimit="10" d="M472.145,98.55
		c-0.519,1.067-1.059,1.905-1.624,2.515c-0.754,0.712-1.553,1.22-2.4,1.524v85.812c0,1.017,0.141,1.729,0.424,2.134
		c0.282,0.407,0.657,0.762,1.129,1.067c0.752,0.609,1.505,1.474,2.259,2.591c0.752,1.12,1.13,2.644,1.13,4.573v4.877h-23.158v-5.03
		c0-1.727,0.375-3.148,1.129-4.268c0.752-1.117,1.505-1.981,2.259-2.591c0.47-0.305,0.847-0.66,1.13-1.067
		c0.282-0.405,0.423-1.117,0.423-2.134v-62.339c0-0.203-0.119-0.381-0.353-0.534c-0.236-0.152-0.448,0.026-0.635,0.534
		c-3.484,6.707-6.59,12.803-9.319,18.29c-1.225,2.339-2.401,4.649-3.53,6.935c-1.13,2.287-2.167,4.396-3.106,6.326
		c-0.942,1.931-1.743,3.558-2.401,4.877c-0.66,1.322-1.037,2.134-1.129,2.438c-0.282,0.712-0.872,1.246-1.765,1.601
		c-0.896,0.357-1.884,0.533-2.965,0.533c-1.083,0-2.072-0.176-2.965-0.533c-0.896-0.355-1.482-0.838-1.765-1.448
		c-0.189-0.305-0.589-1.117-1.2-2.438c-0.613-1.319-1.39-2.92-2.33-4.801c-0.942-1.879-2.001-3.987-3.177-6.325
		c-1.178-2.336-2.33-4.673-3.459-7.012c-2.731-5.587-5.79-11.736-9.179-18.442c-0.095-0.203-0.211-0.305-0.353-0.305
		c-0.141,0-0.211,0.205-0.211,0.609v62.339v0.152c0,1.017,0.117,1.729,0.353,2.134c0.234,0.407,0.587,0.762,1.059,1.067
		c0.752,0.61,1.504,1.475,2.259,2.591c0.752,1.119,1.129,2.541,1.129,4.268v4.573h-23.581v-4.573c0-1.727,0.375-3.148,1.129-4.268
		c0.752-1.117,1.505-1.981,2.259-2.591c0.47-0.305,0.847-0.66,1.13-1.067c0.282-0.405,0.423-1.117,0.423-2.134v-86.421
		c-0.942-0.305-1.743-0.812-2.4-1.524c-0.66-0.609-1.225-1.448-1.694-2.515c-0.472-1.067-0.706-2.462-0.706-4.191v-4.725h14.685
		c0.565,0,1.152,0.205,1.765,0.609c0.611,0.408,1.059,0.967,1.342,1.677c0.657,1.729,1.694,4.191,3.106,7.393
		c1.412,3.201,3.012,6.732,4.801,10.593c1.787,3.863,3.647,7.8,5.578,11.812c1.928,4.016,3.718,7.697,5.366,11.05
		c1.646,3.354,3.012,6.149,4.095,8.383c1.081,2.236,1.716,3.456,1.906,3.658c0.188,0.509,0.399,0.712,0.635,0.609
		c0.234-0.1,0.446-0.305,0.635-0.609c0-0.1,0.399-0.915,1.201-2.439c0.798-1.524,1.787-3.556,2.965-6.097
		c1.176-2.539,2.542-5.385,4.095-8.536c1.553-3.148,3.128-6.349,4.73-9.602l12.708-26.216c0.375-0.915,0.847-1.524,1.412-1.829
		c0.564-0.305,1.222-0.457,1.977-0.457h13.556v4.725C472.921,96.087,472.661,97.483,472.145,98.55z"/>
	<path fill="#FFFFFF" stroke="#231F20" stroke-width="3.7025" stroke-miterlimit="10" d="M544.089,89.633
		c4.047,0,7.484,0.586,10.308,1.753c2.824,1.169,5.154,2.819,6.99,4.954c1.836,2.134,3.177,4.725,4.024,7.773
		c0.847,3.049,1.271,6.454,1.271,10.212v64.473c0,7.521-1.765,13.542-5.295,18.062c-3.53,4.522-9.298,6.783-17.298,6.783H513.73
		v-4.115c0-2.234,0.282-3.937,0.847-5.106c0.564-1.167,1.317-2.005,2.259-2.515c1.129-0.709,1.694-1.776,1.694-3.201V104.57
		c0-0.915-0.19-1.65-0.565-2.21c-0.377-0.558-0.801-0.938-1.271-1.143c-0.942-0.507-1.673-1.32-2.189-2.439
		c-0.519-1.117-0.776-2.691-0.776-4.725v-4.42H544.089z M552.702,114.02c0-3.555-0.684-6.401-2.047-8.535
		c-1.366-2.134-3.555-3.201-6.566-3.201h-9.743c-0.66,0-1.154,0.229-1.482,0.686c-0.331,0.458-0.494,0.941-0.494,1.448v84.592
		c0,0.51,0.141,0.991,0.423,1.448c0.282,0.457,0.658,0.686,1.13,0.686h10.167c3.012,0,5.2-1.067,6.566-3.201
		c1.363-2.134,2.047-4.978,2.047-8.535V114.02z"/>
	<path fill="#FFFFFF" stroke="#231F20" stroke-width="3.7025" stroke-miterlimit="10" d="M633.33,191.906
		c0.752,0.51,1.482,1.143,2.188,1.905s1.059,2.058,1.059,3.887v5.944h-11.72c-2.449,0-4.261-0.686-5.437-2.058
		c-1.178-1.372-1.765-3.175-1.765-5.411V166.3c0-3.556-0.685-6.325-2.048-8.307c-1.366-1.981-3.555-2.972-6.566-2.972h-8.755
		c-1.224,0-1.835,0.712-1.835,2.134v31.855c0,1.017,0.141,1.729,0.424,2.134c0.282,0.407,0.61,0.814,0.988,1.22
		c0.752,0.609,1.505,1.474,2.259,2.591c0.753,1.12,1.13,2.541,1.13,4.268v4.42h-23.44v-4.42c0-1.727,0.375-3.148,1.13-4.268
		c0.752-1.117,1.505-1.981,2.26-2.591c0.375-0.405,0.706-0.812,0.988-1.22c0.282-0.405,0.424-1.117,0.424-2.134v-84.745
		c0-0.812-0.142-1.448-0.424-1.905c-0.282-0.458-0.613-0.786-0.988-0.991c-0.755-0.507-1.483-1.319-2.189-2.439
		c-0.706-1.117-1.059-2.744-1.059-4.877v-4.42h29.088c4.047,0,7.484,0.636,10.309,1.905c2.824,1.271,5.153,3.024,6.989,5.258
		c1.836,2.236,3.178,4.904,4.024,8.002c0.848,3.101,1.271,6.53,1.271,10.289v15.699c0,3.253-0.613,6.226-1.835,8.917
		c-1.225,2.694-2.824,4.904-4.802,6.63c-0.847,0.915-0.754,1.932,0.283,3.048c2.164,1.729,3.764,4.115,4.801,7.164
		c1.034,3.049,1.553,6.454,1.553,10.212v22.405c0,1.017,0.164,1.653,0.495,1.905C632.458,191.323,632.857,191.602,633.33,191.906z
		 M617.656,114.02c0-3.555-0.685-6.375-2.048-8.459c-1.366-2.082-3.555-3.125-6.566-3.125h-8.331c-1.507,0-2.259,0.712-2.259,2.134
		v36.276c0,0.509,0.188,0.915,0.564,1.219c0.375,0.305,0.753,0.457,1.13,0.457h8.896c3.012,0,5.2-1.067,6.566-3.201
		c1.363-2.134,2.048-4.978,2.048-8.536V114.02z"/>
	<path fill="#FFFFFF" stroke="#231F20" stroke-width="3.7025" stroke-miterlimit="10" d="M709.014,192.211
		c0.752,0.51,1.482,1.398,2.188,2.667c0.706,1.272,1.06,2.77,1.06,4.497v4.268H688.68v-4.115c0-1.829,0.329-3.301,0.989-4.42
		c0.657-1.117,1.363-1.929,2.117-2.438c0.471-0.405,0.87-0.812,1.2-1.219c0.329-0.405,0.495-1.067,0.495-1.981
		c-0.19-1.929-0.424-3.708-0.706-5.335c-0.19-1.422-0.378-2.767-0.565-4.039c-0.189-1.269-0.282-2.158-0.282-2.667
		c-0.189-1.22-0.564-2.032-1.13-2.439c-0.564-0.405-1.271-0.61-2.118-0.61h-16.097c-1.508,0-2.354,1.017-2.542,3.049
		c-0.095,0.509-0.166,1.398-0.212,2.667c-0.049,1.272-0.165,2.617-0.353,4.039c-0.19,1.627-0.378,3.406-0.565,5.335
		c0,0.915,0.093,1.577,0.282,1.981c0.188,0.407,0.517,0.814,0.988,1.219c0.753,0.51,1.459,1.322,2.118,2.438
		c0.658,1.12,0.989,2.591,0.989,4.42v4.115h-23.582v-3.963c0-1.727,0.354-3.277,1.06-4.649c0.706-1.372,1.434-2.31,2.188-2.82
		c0.47-0.405,0.894-0.838,1.271-1.295c0.375-0.457,0.658-1.091,0.848-1.905c2.634-15.646,5.035-29.619,7.201-41.915
		c0.94-5.282,1.836-10.441,2.683-15.471c0.848-5.03,1.624-9.526,2.33-13.489s1.271-7.164,1.694-9.603
		c0.424-2.439,0.636-3.708,0.636-3.811c0.093-0.812,0.142-1.548,0.142-2.21c0-0.66-0.236-1.091-0.706-1.295
		c-2.354-1.015-3.53-3.708-3.53-8.079v-3.505h18.922c2.164,0,3.904,0.686,5.225,2.058c1.316,1.372,2.069,2.972,2.259,4.801
		c0,0.407,0.233,2.034,0.706,4.877c0.47,2.846,1.059,6.478,1.765,10.898c0.706,4.42,1.505,9.374,2.401,14.861
		c0.894,5.487,1.811,11.077,2.753,16.766c2.164,13.312,4.611,28.35,7.343,45.116c0.188,0.814,0.47,1.448,0.848,1.905
		C708.118,191.373,708.541,191.806,709.014,192.211z M687.551,161.728c0.657,0,1.176-0.252,1.553-0.762
		c0.375-0.507,0.517-1.067,0.424-1.677c0-0.1-0.142-0.964-0.424-2.591c-0.282-1.625-0.613-3.708-0.988-6.25
		c-0.377-2.539-0.801-5.411-1.271-8.611c-0.473-3.201-0.989-6.478-1.554-9.831l-4.236-26.521h-0.282l-4.236,26.521
		c-0.564,3.353-1.083,6.63-1.553,9.831c-0.473,3.201-0.896,6.073-1.271,8.611c-0.377,2.541-0.684,4.625-0.918,6.25
		c-0.235,1.626-0.353,2.491-0.353,2.591c-0.095,0.712,0.046,1.296,0.424,1.753c0.375,0.457,0.847,0.686,1.412,0.686H687.551z"/>
	<path fill="#FFFFFF" stroke="#231F20" stroke-width="3.7025" stroke-miterlimit="10" d="M744.878,188.858v0.305
		c0,0.915,0.142,1.577,0.424,1.981c0.282,0.407,0.611,0.762,0.988,1.067c0.753,0.61,1.505,1.475,2.26,2.591
		c0.752,1.119,1.13,2.541,1.13,4.268v4.573h-23.582v-4.573c0-1.727,0.329-3.125,0.988-4.191c0.658-1.067,1.459-1.955,2.401-2.667
		c0.47-0.305,0.822-0.66,1.059-1.067c0.234-0.405,0.354-1.067,0.354-1.981v-0.305v-84.44c0-1.015-0.119-1.727-0.354-2.134
		c-0.236-0.405-0.589-0.812-1.059-1.22c-0.755-0.609-1.508-1.472-2.26-2.591c-0.755-1.117-1.13-2.539-1.13-4.268v-4.42h23.582v4.42
		c0,1.729-0.378,3.151-1.13,4.268c-0.755,1.119-1.507,1.981-2.26,2.591c-0.472,0.407-0.825,0.814-1.059,1.22
		c-0.236,0.407-0.354,1.119-0.354,2.134V188.858z"/>
	<path fill="#FFFFFF" stroke="#231F20" stroke-width="3.7025" stroke-miterlimit="10" d="M821.409,89.633v4.42
		c0,1.729-0.377,3.151-1.13,4.268c-0.754,1.119-1.507,1.981-2.259,2.591c-0.378,0.407-0.685,0.814-0.918,1.219
		c-0.236,0.408-0.401,1.067-0.494,1.981v95.567c0,1.017-0.282,1.932-0.848,2.744c-0.564,0.814-1.412,1.219-2.541,1.219h-8.19
		c-1.225,0-2.096-0.557-2.612-1.677c-0.519-1.117-1.013-2.539-1.482-4.268c-0.189-0.507-0.801-2.515-1.836-6.021
		c-1.037-3.506-2.283-7.721-3.742-12.651c-1.46-4.927-3.014-10.186-4.659-15.775c-1.648-5.587-3.178-10.769-4.59-15.546
		c-1.412-4.775-2.59-8.764-3.529-11.965c-0.942-3.201-1.412-4.851-1.412-4.954c-0.096-0.202-0.19-0.354-0.283-0.457
		c-0.095-0.1-0.141,0.152-0.141,0.762v57.767c0,1.119,0.141,1.881,0.424,2.286c0.282,0.407,0.657,0.762,1.129,1.067
		c0.753,0.61,1.483,1.475,2.189,2.591c0.706,1.119,1.059,2.541,1.059,4.268v4.573h-22.028v-4.573c0-1.727,0.375-3.148,1.13-4.268
		c0.752-1.117,1.505-1.981,2.26-2.591c0.375-0.305,0.706-0.66,0.988-1.067c0.282-0.405,0.424-1.117,0.424-2.134v-85.964
		c-0.942-0.405-1.743-0.964-2.401-1.676c-0.659-0.61-1.225-1.448-1.694-2.515c-0.472-1.067-0.706-2.462-0.706-4.191v-5.03h15.956
		c1.13,0,1.978,0.281,2.542,0.838c0.565,0.56,0.988,1.348,1.271,2.362c0,0.205,0.47,1.932,1.411,5.182
		c0.94,3.253,2.118,7.292,3.53,12.118c1.412,4.827,2.941,10.112,4.59,15.852c1.646,5.742,3.199,11.229,4.659,16.461
		c1.459,5.235,2.754,9.831,3.884,13.794c1.129,3.963,1.882,6.606,2.259,7.926c0.093,0.205,0.212,0.407,0.354,0.61
		c0.141,0.205,0.211,0.152,0.211-0.152v-60.358c0-1.015-0.141-1.727-0.423-2.134c-0.282-0.405-0.613-0.812-0.988-1.219
		c-0.755-0.609-1.508-1.472-2.26-2.591c-0.755-1.117-1.13-2.539-1.13-4.268v-4.42H821.409z"/>
	<path fill="#FFFFFF" stroke="#231F20" stroke-width="3.7025" stroke-miterlimit="10" d="M880.856,188.858v0.305
		c0,0.915,0.142,1.577,0.424,1.981c0.282,0.407,0.611,0.762,0.988,1.067c0.753,0.61,1.505,1.475,2.26,2.591
		c0.752,1.119,1.13,2.541,1.13,4.268v4.573h-23.582v-4.573c0-1.727,0.329-3.125,0.988-4.191c0.658-1.067,1.459-1.955,2.401-2.667
		c0.47-0.305,0.822-0.66,1.059-1.067c0.234-0.405,0.354-1.067,0.354-1.981v-0.305v-84.44c0-1.015-0.119-1.727-0.354-2.134
		c-0.236-0.405-0.589-0.812-1.059-1.22c-0.755-0.609-1.508-1.472-2.26-2.591c-0.755-1.117-1.13-2.539-1.13-4.268v-4.42h23.582v4.42
		c0,1.729-0.378,3.151-1.13,4.268c-0.755,1.119-1.507,1.981-2.26,2.591c-0.472,0.407-0.825,0.814-1.059,1.22
		c-0.236,0.407-0.354,1.119-0.354,2.134V188.858z"/>
	<path fill="#FFFFFF" stroke="#231F20" stroke-width="3.7025" stroke-miterlimit="10" d="M906.837,191.906v9.603
		c0,0.814-0.706,1.448-2.118,1.905c-1.412,0.457-3.248,0.686-5.507,0.686c-2.26,0-4.073-0.178-5.437-0.533
		c-1.366-0.355-2.048-0.938-2.048-1.753v-0.305v-9.298c0-0.914,0.706-1.548,2.118-1.905c1.412-0.355,3.199-0.534,5.366-0.534
		c2.259,0,4.095,0.179,5.507,0.534C906.131,190.663,906.837,191.197,906.837,191.906z"/>
	<path fill="#FFFFFF" stroke="#231F20" stroke-width="3.7025" stroke-miterlimit="10" d="M943.268,89.633
		c8,0,13.743,2.236,17.228,6.707c3.481,4.472,5.225,10.517,5.225,18.138v16.614c0,7.621-1.743,13.591-5.225,17.909
		c-3.484,4.32-9.228,6.478-17.228,6.478h-9.179c-1.319,0-1.977,0.61-1.977,1.829v31.703c0,1.017,0.117,1.729,0.354,2.134
		c0.233,0.407,0.587,0.814,1.059,1.22c0.752,0.609,1.505,1.474,2.26,2.591c0.752,1.12,1.129,2.541,1.129,4.268v4.42h-23.581v-4.42
		c0-1.727,0.375-3.148,1.13-4.268c0.752-1.117,1.505-1.981,2.259-2.591c0.471-0.405,0.823-0.812,1.06-1.22
		c0.233-0.405,0.353-1.117,0.353-2.134v-84.592c0-1.524-0.613-2.641-1.835-3.354c-0.942-0.609-1.743-1.524-2.401-2.743
		c-0.659-1.22-0.988-2.844-0.988-4.877v-3.811H943.268z M951.74,114.173c0-3.556-0.685-6.402-2.048-8.536
		c-1.365-2.134-3.508-3.201-6.425-3.201h-8.896c-0.565,0-1.084,0.179-1.554,0.533c-0.472,0.357-0.706,0.891-0.706,1.601v35.971
		c0,1.424,0.611,2.134,1.836,2.134h9.319c2.917,0,5.06-1.067,6.425-3.201c1.363-2.134,2.048-4.978,2.048-8.535V114.173z"/>
	<path fill="#FFFFFF" stroke="#231F20" stroke-width="3.7025" stroke-miterlimit="10" d="M965.014,191.906v9.603
		c0,0.814-0.706,1.448-2.118,1.905c-1.412,0.457-3.248,0.686-5.507,0.686c-2.26,0-4.073-0.178-5.437-0.533
		c-1.366-0.355-2.048-0.938-2.048-1.753v-0.305v-9.298c0-0.914,0.706-1.548,2.118-1.905c1.412-0.355,3.199-0.534,5.366-0.534
		c2.259,0,4.095,0.179,5.507,0.534C964.308,190.663,965.014,191.197,965.014,191.906z"/>
	<path fill="#FFFFFF" stroke="#231F20" stroke-width="3.7025" stroke-miterlimit="10" d="M1030.392,192.211
		c0.752,0.51,1.482,1.398,2.188,2.667c0.706,1.272,1.06,2.77,1.06,4.497v4.268h-23.582v-4.115c0-1.829,0.329-3.301,0.989-4.42
		c0.657-1.117,1.363-1.929,2.117-2.438c0.471-0.405,0.87-0.812,1.2-1.219c0.329-0.405,0.495-1.067,0.495-1.981
		c-0.19-1.929-0.424-3.708-0.706-5.335c-0.19-1.422-0.378-2.767-0.565-4.039c-0.189-1.269-0.282-2.158-0.282-2.667
		c-0.189-1.22-0.564-2.032-1.13-2.439c-0.564-0.405-1.271-0.61-2.118-0.61h-16.097c-1.508,0-2.354,1.017-2.542,3.049
		c-0.095,0.509-0.166,1.398-0.212,2.667c-0.049,1.272-0.165,2.617-0.353,4.039c-0.19,1.627-0.378,3.406-0.565,5.335
		c0,0.915,0.093,1.577,0.282,1.981c0.188,0.407,0.517,0.814,0.988,1.219c0.753,0.51,1.459,1.322,2.118,2.438
		c0.658,1.12,0.989,2.591,0.989,4.42v4.115h-23.582v-3.963c0-1.727,0.354-3.277,1.06-4.649c0.706-1.372,1.434-2.31,2.188-2.82
		c0.47-0.405,0.894-0.838,1.271-1.295c0.375-0.457,0.658-1.091,0.848-1.905c2.634-15.646,5.035-29.619,7.201-41.915
		c0.94-5.282,1.836-10.441,2.683-15.471c0.848-5.03,1.624-9.526,2.33-13.489s1.271-7.164,1.694-9.603
		c0.424-2.439,0.636-3.708,0.636-3.811c0.093-0.812,0.142-1.548,0.142-2.21c0-0.66-0.236-1.091-0.706-1.295
		c-2.354-1.015-3.53-3.708-3.53-8.079v-3.505h18.922c2.164,0,3.904,0.686,5.225,2.058c1.316,1.372,2.069,2.972,2.259,4.801
		c0,0.407,0.233,2.034,0.706,4.877c0.47,2.846,1.059,6.478,1.765,10.898c0.706,4.42,1.505,9.374,2.401,14.861
		c0.894,5.487,1.811,11.077,2.753,16.766c2.164,13.312,4.611,28.35,7.343,45.116c0.188,0.814,0.47,1.448,0.848,1.905
		C1029.496,191.373,1029.919,191.806,1030.392,192.211z M1008.929,161.728c0.657,0,1.176-0.252,1.553-0.762
		c0.375-0.507,0.517-1.067,0.424-1.677c0-0.1-0.142-0.964-0.424-2.591c-0.282-1.625-0.613-3.708-0.988-6.25
		c-0.377-2.539-0.801-5.411-1.271-8.611c-0.473-3.201-0.989-6.478-1.554-9.831l-4.236-26.521h-0.282l-4.236,26.521
		c-0.564,3.353-1.083,6.63-1.553,9.831c-0.473,3.201-0.896,6.073-1.271,8.611c-0.377,2.541-0.684,4.625-0.918,6.25
		c-0.235,1.626-0.353,2.491-0.353,2.591c-0.095,0.712,0.046,1.296,0.424,1.753c0.375,0.457,0.847,0.686,1.412,0.686H1008.929z"/>
</g>
<g>
	<path fill="#231F20" d="M192.549,68.917c-2.754,0-4.922-0.881-6.5-2.645c-0.625-0.624-1.121-1.377-1.487-2.258
		c-0.368-0.881-0.643-1.854-0.826-2.92c-0.11-0.661-0.166-1.23-0.166-1.708c0-0.477,0-0.808,0-0.992V37.186
		c0-1.688,0.266-3.158,0.799-4.407c0.532-1.249,1.221-2.277,2.066-3.085c0.844-0.808,1.799-1.405,2.865-1.791
		c1.064-0.386,2.129-0.579,3.195-0.579c0.661,0,1.57,0.129,2.727,0.386c1.157,0.257,2.267,0.863,3.333,1.818
		c0.734,0.625,1.441,1.542,2.121,2.754c0.679,1.212,1.019,2.847,1.019,4.903c0,0.551-0.192,1.019-0.578,1.405
		s-0.854,0.579-1.405,0.579s-1.019-0.193-1.405-0.579s-0.579-0.854-0.579-1.405c0-1.358-0.211-2.433-0.633-3.223
		c-0.423-0.789-0.928-1.377-1.515-1.763c-0.588-0.386-1.166-0.634-1.735-0.744c-0.57-0.11-1.019-0.166-1.35-0.166
		c-0.625,0-1.221,0.11-1.79,0.331c-0.57,0.221-1.056,0.533-1.46,0.937c-1.139,1.029-1.708,2.571-1.708,4.627v21.319v0.165
		c0,0.037,0,0.23,0,0.579c0,0.349,0.036,0.771,0.11,1.267c0.073,0.496,0.211,1.028,0.413,1.597c0.202,0.57,0.504,1.074,0.909,1.515
		c0.807,0.881,2.001,1.322,3.581,1.322c1.653,0,2.883-0.459,3.691-1.377c0.404-0.44,0.707-0.917,0.909-1.432
		c0.201-0.514,0.349-1.01,0.44-1.487c0.091-0.477,0.138-1.047,0.138-1.708c-0.037-0.551,0.128-1.028,0.496-1.432
		c0.367-0.404,0.826-0.624,1.377-0.661c0.514-0.036,0.982,0.129,1.405,0.496c0.422,0.368,0.652,0.809,0.688,1.322
		c0,0.074,0,0.35,0,0.826c0,0.478-0.074,1.084-0.22,1.818c-0.331,2.057-1.102,3.709-2.313,4.958
		C197.507,68.035,195.303,68.917,192.549,68.917z"/>
	<path fill="#231F20" d="M227.998,65.473c0.386,0.386,0.579,0.854,0.579,1.405c0,0.515-0.193,0.964-0.579,1.35
		c-0.386,0.386-0.854,0.579-1.405,0.579h-14.598c-0.551,0-1.019-0.193-1.405-0.579c-0.386-0.385-0.579-0.834-0.579-1.35V29.749
		c0-0.514,0.193-0.964,0.579-1.35c0.386-0.385,0.854-0.578,1.405-0.578h14.598c0.551,0,1.019,0.193,1.405,0.578
		c0.386,0.386,0.579,0.836,0.579,1.35c0,0.551-0.193,1.02-0.579,1.405c-0.386,0.386-0.854,0.579-1.405,0.579h-12.67v16.912h9.53
		c0.551,0,1.01,0.193,1.377,0.578c0.367,0.386,0.551,0.854,0.551,1.405c0,0.515-0.184,0.964-0.551,1.35
		c-0.368,0.386-0.826,0.579-1.377,0.579h-9.53v12.34h12.67C227.144,64.895,227.612,65.088,227.998,65.473z"/>
	<path fill="#231F20" d="M254.853,68.806H240.2c-0.515,0-0.964-0.193-1.35-0.579c-0.386-0.385-0.578-0.834-0.578-1.35V29.749
		c0-0.514,0.192-0.964,0.578-1.35c0.386-0.385,0.835-0.578,1.35-0.578c0.551,0,1.01,0.193,1.377,0.578
		c0.367,0.386,0.551,0.836,0.551,1.35v35.146h12.725c0.514,0,0.964,0.193,1.35,0.578c0.385,0.386,0.578,0.854,0.578,1.405
		c0,0.515-0.193,0.964-0.578,1.35C255.817,68.613,255.367,68.806,254.853,68.806z"/>
	<path fill="#231F20" d="M282.645,65.473c0.386,0.386,0.579,0.854,0.579,1.405c0,0.515-0.193,0.964-0.579,1.35
		c-0.386,0.386-0.854,0.579-1.405,0.579h-14.598c-0.551,0-1.019-0.193-1.405-0.579c-0.386-0.385-0.579-0.834-0.579-1.35V29.749
		c0-0.514,0.193-0.964,0.579-1.35c0.386-0.385,0.854-0.578,1.405-0.578h14.598c0.551,0,1.019,0.193,1.405,0.578
		c0.386,0.386,0.579,0.836,0.579,1.35c0,0.551-0.193,1.02-0.579,1.405c-0.386,0.386-0.854,0.579-1.405,0.579h-12.67v16.912h9.53
		c0.551,0,1.01,0.193,1.377,0.578c0.367,0.386,0.551,0.854,0.551,1.405c0,0.515-0.184,0.964-0.551,1.35
		c-0.368,0.386-0.826,0.579-1.377,0.579h-9.53v12.34h12.67C281.791,64.895,282.259,65.088,282.645,65.473z"/>
	<path fill="#231F20" d="M307.737,48.864c1.542,2.278,2.314,4.977,2.314,8.098c0,1.506-0.203,2.947-0.606,4.324
		c-0.405,1.377-0.974,2.636-1.708,3.773c-0.845,1.176-1.809,2.093-2.892,2.754c-1.083,0.661-2.213,0.992-3.388,0.992h-7.823
		c-0.037,0-0.074-0.019-0.11-0.055c-0.037,0.036-0.092,0.055-0.166,0.055c-0.551,0-1.01-0.193-1.377-0.579
		c-0.368-0.385-0.551-0.854-0.551-1.404V29.694c0-0.514,0.184-0.964,0.551-1.35c0.367-0.386,0.826-0.579,1.377-0.579h0.055h7.051
		c2.24,0,4.131,1.139,5.674,3.416c1.433,2.057,2.148,4.462,2.148,7.216c0,1.322-0.184,2.608-0.551,3.856
		c-0.367,1.249-0.9,2.369-1.598,3.36c-0.22,0.331-0.459,0.625-0.716,0.881C306.268,47.083,307.039,47.873,307.737,48.864z
		 M304.376,38.397c0-0.955-0.12-1.836-0.358-2.644c-0.239-0.808-0.542-1.515-0.909-2.121c-0.367-0.606-0.79-1.083-1.267-1.432
		c-0.478-0.349-0.937-0.523-1.377-0.523h-5.178v13.441h5.178c0.44,0,0.899-0.174,1.377-0.523c0.477-0.349,0.9-0.827,1.267-1.433
		c0.367-0.606,0.67-1.312,0.909-2.121C304.257,40.234,304.376,39.353,304.376,38.397z M304.487,62.856
		c0.551-0.807,0.973-1.726,1.267-2.754c0.293-1.027,0.44-2.074,0.44-3.14c0-1.102-0.147-2.167-0.44-3.195
		c-0.294-1.028-0.716-1.928-1.267-2.699c-0.918-1.358-1.928-2.038-3.03-2.038h-6.17v15.865h6.17c0.514,0,1.037-0.184,1.57-0.551
		C303.559,63.978,304.046,63.481,304.487,62.856z"/>
	<path fill="#231F20" d="M337.484,66.107c0.22,0.515,0.238,1.019,0.055,1.515c-0.184,0.496-0.533,0.836-1.047,1.02
		c-0.147,0.073-0.285,0.119-0.413,0.138c-0.129,0.018-0.248,0.027-0.358,0.027c-0.405,0-0.763-0.092-1.074-0.275
		c-0.312-0.183-0.561-0.477-0.744-0.881L327.293,52.5h-5.729v14.378c0,0.551-0.193,1.011-0.579,1.377
		c-0.385,0.367-0.854,0.551-1.404,0.551c-0.515,0-0.964-0.184-1.35-0.551c-0.385-0.367-0.578-0.826-0.578-1.377V29.804
		c0-0.551,0.193-1.019,0.578-1.405c0.386-0.385,0.835-0.578,1.35-0.578h8.208c1.175,0,2.304,0.358,3.388,1.074
		c1.083,0.716,2.047,1.717,2.892,3.002c0.734,1.176,1.303,2.479,1.708,3.912c0.403,1.432,0.606,2.883,0.606,4.352
		c0,1.506-0.203,2.975-0.606,4.407c-0.405,1.432-0.974,2.736-1.708,3.911c-0.918,1.396-1.91,2.406-2.975,3.03L337.484,66.107z
		 M321.564,48.644h6.225c0.477,0,0.982-0.202,1.515-0.606c0.532-0.404,1.02-0.955,1.46-1.653c0.551-0.844,0.982-1.808,1.294-2.892
		c0.312-1.083,0.468-2.194,0.468-3.333c0-1.102-0.157-2.194-0.468-3.277c-0.312-1.083-0.744-2.047-1.294-2.892
		c-0.44-0.734-0.928-1.295-1.46-1.68c-0.533-0.386-1.038-0.579-1.515-0.579h-6.225V48.644z"/>
	<path fill="#231F20" d="M361.447,67.099c0.11,0.515,0.018,0.983-0.275,1.405c-0.294,0.421-0.68,0.688-1.157,0.798h-0.331
		c-0.405,0-0.781-0.138-1.129-0.413c-0.35-0.275-0.56-0.614-0.633-1.019l-1.487-7.162h-8.924l-1.433,7.162
		c-0.074,0.405-0.285,0.744-0.633,1.019c-0.35,0.275-0.744,0.413-1.185,0.413h-0.331c-0.478-0.11-0.854-0.377-1.129-0.798
		c-0.276-0.422-0.358-0.89-0.248-1.405l7.657-38.066c0.036-0.146,0.073-0.239,0.11-0.275v-0.055v-0.055
		c0.073-0.183,0.166-0.312,0.276-0.386v-0.11h0.055v-0.055h0.055v-0.055h0.055v-0.055h0.055c0.073-0.073,0.146-0.128,0.22-0.165
		c0.073-0.036,0.166-0.073,0.275-0.11v-0.055h0.055c0.073-0.036,0.156-0.055,0.248-0.055c0.091,0,0.174-0.018,0.248-0.055h0.055
		h0.11h0.055c0.073,0.037,0.156,0.055,0.248,0.055c0.091,0,0.174,0.019,0.248,0.055h0.055v0.055c0.146,0.037,0.256,0.074,0.331,0.11
		c0.073,0.037,0.146,0.092,0.22,0.165h0.055v0.055h0.055v0.055h0.055v0.055l0.055,0.11c0.036,0.074,0.083,0.138,0.138,0.193
		c0.055,0.055,0.101,0.12,0.138,0.193v0.055v0.055c0.036,0.037,0.055,0.129,0.055,0.275L361.447,67.099z M355.718,57.127
		l-3.801-18.62l-3.691,18.62H355.718z"/>
	<path fill="#231F20" d="M386.484,28.399c0.386,0.386,0.579,0.854,0.579,1.405c0,0.515-0.193,0.964-0.579,1.35
		c-0.386,0.386-0.836,0.579-1.35,0.579h-6.666v35.146c0,0.551-0.185,1.011-0.551,1.377c-0.367,0.367-0.826,0.551-1.377,0.551
		c-0.515,0-0.964-0.184-1.35-0.551s-0.579-0.826-0.579-1.377V31.732h-6.776c-0.551,0-1.019-0.193-1.405-0.579
		c-0.385-0.385-0.578-0.835-0.578-1.35c0-0.551,0.193-1.019,0.578-1.405c0.386-0.385,0.854-0.578,1.405-0.578h17.298
		C385.648,27.821,386.099,28.014,386.484,28.399z"/>
	<path fill="#231F20" d="M410.392,65.473c0.386,0.386,0.579,0.854,0.579,1.405c0,0.515-0.193,0.964-0.579,1.35
		c-0.386,0.386-0.854,0.579-1.405,0.579h-14.598c-0.551,0-1.019-0.193-1.405-0.579c-0.386-0.385-0.579-0.834-0.579-1.35V29.749
		c0-0.514,0.193-0.964,0.579-1.35c0.386-0.385,0.854-0.578,1.405-0.578h14.598c0.551,0,1.019,0.193,1.405,0.578
		c0.386,0.386,0.579,0.836,0.579,1.35c0,0.551-0.193,1.02-0.579,1.405c-0.386,0.386-0.854,0.579-1.405,0.579h-12.67v16.912h9.53
		c0.551,0,1.01,0.193,1.377,0.578c0.367,0.386,0.551,0.854,0.551,1.405c0,0.515-0.184,0.964-0.551,1.35
		c-0.368,0.386-0.826,0.579-1.377,0.579h-9.53v12.34h12.67C409.538,64.895,410.006,65.088,410.392,65.473z"/>
	<path fill="#231F20" d="M464.764,28.399c0.386,0.386,0.579,0.854,0.579,1.405c0,0.515-0.193,0.964-0.579,1.35
		c-0.386,0.386-0.836,0.579-1.35,0.579h-6.666v35.146c0,0.551-0.185,1.011-0.551,1.377c-0.367,0.367-0.826,0.551-1.377,0.551
		c-0.515,0-0.964-0.184-1.35-0.551s-0.579-0.826-0.579-1.377V31.732h-6.776c-0.551,0-1.019-0.193-1.405-0.579
		c-0.385-0.385-0.578-0.835-0.578-1.35c0-0.551,0.193-1.019,0.578-1.405c0.386-0.385,0.854-0.578,1.405-0.578h17.298
		C463.928,27.821,464.378,28.014,464.764,28.399z"/>
	<path fill="#231F20" d="M488.589,27.821c0.514,0,0.964,0.193,1.35,0.578c0.386,0.386,0.579,0.836,0.579,1.35v37.129
		c0,0.515-0.193,0.964-0.579,1.35c-0.386,0.386-0.836,0.579-1.35,0.579c-0.551,0-1.019-0.193-1.405-0.579
		c-0.386-0.385-0.579-0.834-0.579-1.35V52.555h-11.568v14.323c0,0.515-0.193,0.964-0.579,1.35c-0.385,0.386-0.854,0.579-1.405,0.579
		c-0.515,0-0.964-0.193-1.35-0.579c-0.385-0.385-0.578-0.834-0.578-1.35V29.749c0-0.514,0.193-0.964,0.578-1.35
		c0.386-0.385,0.835-0.578,1.35-0.578c0.551,0,1.02,0.193,1.405,0.578c0.386,0.386,0.579,0.836,0.579,1.35v18.896h11.568V29.749
		c0-0.514,0.193-0.964,0.579-1.35C487.57,28.014,488.039,27.821,488.589,27.821z"/>
	<path fill="#231F20" d="M517.042,65.473c0.386,0.386,0.579,0.854,0.579,1.405c0,0.515-0.193,0.964-0.579,1.35
		c-0.386,0.386-0.854,0.579-1.405,0.579h-14.598c-0.551,0-1.019-0.193-1.405-0.579c-0.386-0.385-0.579-0.834-0.579-1.35V29.749
		c0-0.514,0.193-0.964,0.579-1.35c0.386-0.385,0.854-0.578,1.405-0.578h14.598c0.551,0,1.019,0.193,1.405,0.578
		c0.386,0.386,0.579,0.836,0.579,1.35c0,0.551-0.193,1.02-0.579,1.405c-0.386,0.386-0.854,0.579-1.405,0.579h-12.67v16.912h9.53
		c0.551,0,1.01,0.193,1.377,0.578c0.367,0.386,0.551,0.854,0.551,1.405c0,0.515-0.184,0.964-0.551,1.35
		c-0.368,0.386-0.826,0.579-1.377,0.579h-9.53v12.34h12.67C516.188,64.895,516.656,65.088,517.042,65.473z"/>
	<path fill="#231F20" d="M561.581,69.026c-2.571,0-4.737-0.734-6.501-2.203c-0.697-0.587-1.387-1.478-2.065-2.672
		c-0.68-1.193-1.02-2.818-1.02-4.875c0-0.551,0.193-1.01,0.579-1.377c0.386-0.367,0.854-0.551,1.404-0.551
		c0.514,0,0.955,0.185,1.322,0.551c0.367,0.367,0.551,0.826,0.551,1.377c0,1.212,0.174,2.204,0.523,2.975
		c0.349,0.771,0.799,1.369,1.35,1.791c0.551,0.423,1.166,0.716,1.846,0.881c0.679,0.166,1.35,0.248,2.011,0.248
		c0.366,0,0.89-0.045,1.57-0.138c0.679-0.091,1.35-0.339,2.01-0.744c0.661-0.404,1.24-0.992,1.735-1.763
		c0.496-0.771,0.744-1.854,0.744-3.25c0-1.358-0.193-2.552-0.578-3.581c-0.386-1.028-0.919-1.946-1.598-2.754
		c-0.681-0.808-1.46-1.551-2.342-2.231c-0.881-0.679-1.817-1.368-2.81-2.066c-0.881-0.624-1.771-1.285-2.672-1.983
		c-0.899-0.697-1.717-1.468-2.451-2.313c-1.727-2.02-2.607-4.352-2.644-6.996c0-0.146,0.008-0.441,0.027-0.881
		c0.018-0.441,0.082-0.955,0.192-1.542c0.331-1.873,1.064-3.434,2.204-4.683c1.652-1.726,3.874-2.589,6.665-2.589
		c2.828,0,5.014,0.863,6.556,2.589c0.551,0.625,0.991,1.341,1.322,2.148c0.33,0.808,0.532,1.689,0.605,2.644
		c0.073,0.661,0.102,1.222,0.083,1.68c-0.019,0.46-0.047,0.726-0.083,0.799c-0.109,0.478-0.239,0.9-0.385,1.267
		c-0.185,0.294-0.405,0.551-0.661,0.771c-0.258,0.221-0.644,0.294-1.157,0.221c-0.515-0.073-0.882-0.266-1.102-0.579
		c-0.221-0.312-0.368-0.633-0.441-0.964c-0.109-0.404-0.129-0.827-0.055-1.267c0.073-0.514,0.073-1.01,0-1.487
		c-0.074-0.404-0.185-0.854-0.33-1.35c-0.147-0.496-0.386-0.945-0.717-1.35c-0.734-0.882-1.946-1.322-3.636-1.322
		s-2.956,0.478-3.801,1.432c-0.404,0.405-0.708,0.863-0.909,1.377c-0.202,0.515-0.34,0.973-0.413,1.377
		c-0.11,0.515-0.147,1.011-0.11,1.487v0.166c0,0.918,0.146,1.745,0.441,2.479c0.293,0.735,0.706,1.414,1.239,2.038
		c0.531,0.625,1.175,1.24,1.928,1.846c0.752,0.606,1.606,1.258,2.562,1.956c1.064,0.698,2.103,1.441,3.112,2.231
		c1.01,0.79,1.956,1.717,2.837,2.782c1.983,2.424,2.976,5.308,2.976,8.649c0,1.69-0.285,3.149-0.854,4.379
		c-0.569,1.231-1.322,2.241-2.259,3.03c-0.937,0.79-2.002,1.377-3.194,1.763C563.995,68.834,562.792,69.026,561.581,69.026z"/>
	<path fill="#231F20" d="M594.578,31.842c0.734,1.176,1.303,2.479,1.707,3.911s0.607,2.883,0.607,4.352
		c0,1.506-0.203,2.975-0.607,4.407c-0.404,1.433-0.973,2.736-1.707,3.912c-0.846,1.286-1.809,2.277-2.893,2.975
		c-1.084,0.698-2.213,1.046-3.387,1.046h-6.226v14.433c0,0.551-0.184,1.011-0.551,1.377s-0.826,0.551-1.377,0.551
		c-0.515,0-0.964-0.184-1.35-0.551s-0.578-0.826-0.578-1.377V29.804c0-0.771,0.33-1.34,0.991-1.708
		c0.257-0.22,0.587-0.331,0.991-0.331h8.099c1.174,0,2.303,0.358,3.387,1.074S593.732,30.557,594.578,31.842z M591.273,46.33
		c0.551-0.844,0.973-1.808,1.266-2.892c0.295-1.083,0.441-2.194,0.441-3.333c0-1.102-0.146-2.194-0.441-3.278
		c-0.293-1.083-0.715-2.047-1.266-2.892c-0.441-0.734-0.928-1.295-1.461-1.68c-0.533-0.386-1.037-0.579-1.514-0.579h-6.226v16.912
		h6.226c0.477,0,0.98-0.193,1.514-0.579C590.346,47.625,590.832,47.065,591.273,46.33z"/>
	<path fill="#231F20" d="M624.656,66.107c0.221,0.515,0.238,1.019,0.055,1.515c-0.184,0.496-0.533,0.836-1.047,1.02
		c-0.146,0.073-0.285,0.119-0.412,0.138c-0.131,0.018-0.248,0.027-0.359,0.027c-0.404,0-0.762-0.092-1.074-0.275
		s-0.561-0.477-0.744-0.881L614.465,52.5h-5.729v14.378c0,0.551-0.193,1.011-0.58,1.377c-0.385,0.367-0.854,0.551-1.404,0.551
		c-0.514,0-0.963-0.184-1.35-0.551c-0.385-0.367-0.578-0.826-0.578-1.377V29.804c0-0.551,0.193-1.019,0.578-1.405
		c0.387-0.385,0.836-0.578,1.35-0.578h8.209c1.174,0,2.303,0.358,3.387,1.074c1.084,0.716,2.047,1.717,2.893,3.002
		c0.734,1.176,1.303,2.479,1.707,3.912c0.404,1.432,0.607,2.883,0.607,4.352c0,1.506-0.203,2.975-0.607,4.407
		s-0.973,2.736-1.707,3.911c-0.918,1.396-1.91,2.406-2.975,3.03L624.656,66.107z M608.736,48.644h6.225
		c0.477,0,0.982-0.202,1.514-0.606c0.533-0.404,1.02-0.955,1.461-1.653c0.551-0.844,0.982-1.808,1.295-2.892
		c0.311-1.083,0.467-2.194,0.467-3.333c0-1.102-0.156-2.194-0.467-3.277c-0.312-1.083-0.744-2.047-1.295-2.892
		c-0.441-0.734-0.928-1.295-1.461-1.68c-0.531-0.386-1.037-0.579-1.514-0.579h-6.225V48.644z"/>
	<path fill="#231F20" d="M634.24,68.806c-0.551,0-1.01-0.193-1.377-0.579c-0.367-0.385-0.551-0.834-0.551-1.35V29.749
		c0-0.514,0.184-0.964,0.551-1.35c0.367-0.385,0.826-0.578,1.377-0.578c0.514,0,0.965,0.193,1.35,0.578
		c0.387,0.386,0.578,0.836,0.578,1.35v37.129c0,0.515-0.191,0.964-0.578,1.35C635.205,68.613,634.754,68.806,634.24,68.806z"/>
	<path fill="#231F20" d="M664.869,68.035l-0.055,0.055c-0.037,0-0.055,0.019-0.055,0.055h-0.057l-0.055,0.055
		c0,0.037-0.02,0.055-0.055,0.055l-0.055,0.055h-0.055c0,0.037-0.02,0.055-0.057,0.055h-0.055v0.055h-0.055l-0.055,0.055
		c-0.148,0.073-0.295,0.11-0.441,0.11c-0.074,0.036-0.203,0.055-0.385,0.055h-0.057h-0.055h-0.055h-0.109
		c-0.074,0-0.131-0.019-0.166-0.055h-0.109c-0.074-0.037-0.121-0.055-0.139-0.055c-0.02,0-0.064-0.018-0.137-0.055
		c-0.037-0.036-0.074-0.055-0.111-0.055s-0.074-0.018-0.109-0.055l-0.055-0.055l-0.057-0.055h-0.055c0-0.036-0.02-0.055-0.055-0.055
		l-0.055-0.055l-0.057-0.055l-0.055-0.055l-0.055-0.055c-0.037-0.036-0.055-0.073-0.055-0.11c-0.037,0-0.055-0.018-0.055-0.055
		l-0.057-0.055c-0.035-0.037-0.055-0.091-0.055-0.166c-0.037-0.036-0.055-0.063-0.055-0.083c0-0.018-0.02-0.046-0.055-0.083
		l-12.34-28.426v27.709c0,0.515-0.184,0.964-0.551,1.35s-0.826,0.579-1.377,0.579c-0.516,0-0.965-0.193-1.35-0.579
		c-0.387-0.386-0.578-0.835-0.578-1.35V29.639v-0.11v-0.055v-0.055v-0.055v-0.055v-0.055h0.055v-0.11v-0.055v-0.055l0.055-0.055
		v-0.11c0.035,0,0.055-0.018,0.055-0.055c0-0.036,0.01-0.055,0.027-0.055c0.02,0,0.027-0.018,0.027-0.055v-0.055h0.057v-0.055
		c0-0.036,0.018-0.055,0.055-0.055v-0.055l0.055-0.055l0.055-0.055c0-0.036,0.018-0.055,0.055-0.055c0-0.036,0.01-0.055,0.027-0.055
		c0.02,0,0.029-0.018,0.029-0.055c0.035,0,0.055-0.018,0.055-0.055h0.055l0.055-0.055l0.055-0.055c0.037,0,0.057-0.018,0.057-0.055
		h0.055l0.055-0.055h0.055l0.055-0.055h0.057c0.072-0.073,0.146-0.11,0.219-0.11c0.074,0,0.146-0.018,0.221-0.055h0.055
		c0.074-0.036,0.221-0.055,0.441-0.055h0.111h0.055c0.035,0,0.055,0.019,0.055,0.055h0.055h0.055h0.111
		c0.035,0.037,0.072,0.055,0.109,0.055l0.055,0.055h0.111l0.055,0.055c0.037,0,0.072,0.019,0.109,0.055h0.057
		c0,0.037,0.018,0.055,0.055,0.055l0.055,0.055h0.055v0.055h0.055c0,0.037,0.02,0.055,0.057,0.055c0,0.037,0.018,0.055,0.055,0.055
		c0.035,0.037,0.055,0.074,0.055,0.11c0.037,0,0.055,0.019,0.055,0.055h0.055v0.055h0.057v0.055c0,0.037,0.018,0.055,0.055,0.055
		v0.055l0.055,0.055c0,0.037,0.008,0.055,0.027,0.055c0.018,0,0.027,0.019,0.027,0.055l0.055,0.11l12.34,28.48V29.583
		c0-0.514,0.184-0.964,0.551-1.35s0.828-0.579,1.379-0.579c0.514,0,0.963,0.193,1.35,0.579c0.385,0.386,0.578,0.836,0.578,1.35
		v37.074v0.166v0.055v0.055v0.055v0.055l-0.055,0.055v0.055v0.11l-0.057,0.055v0.11c-0.037,0-0.055,0.019-0.055,0.055v0.055
		l-0.055,0.055v0.055c-0.037,0-0.055,0.019-0.055,0.055v0.055h-0.055v0.055l-0.057,0.055c0,0.037-0.018,0.055-0.055,0.055
		c0,0.037-0.01,0.055-0.027,0.055C664.877,67.98,664.869,67.999,664.869,68.035z"/>
	<path fill="#231F20" d="M681.947,69.302c-2.793,0-4.959-0.881-6.502-2.644c-1.248-1.285-2.037-3.03-2.367-5.233
		c-0.074-0.624-0.121-1.175-0.139-1.652c-0.02-0.477-0.01-0.808,0.027-0.992V37.186c0-1.688,0.266-3.158,0.799-4.407
		c0.531-1.249,1.221-2.277,2.066-3.085c0.844-0.808,1.799-1.405,2.863-1.791c1.066-0.386,2.148-0.579,3.252-0.579
		c2.35,0,4.352,0.735,6.004,2.204c0.697,0.625,1.367,1.552,2.01,2.782c0.643,1.23,0.965,2.874,0.965,4.93
		c0,0.515-0.193,0.964-0.578,1.35c-0.387,0.386-0.836,0.579-1.35,0.579c-0.551,0-1.02-0.193-1.404-0.579
		c-0.387-0.386-0.58-0.835-0.58-1.35c0-1.396-0.211-2.497-0.633-3.305c-0.422-0.808-0.908-1.414-1.459-1.818
		c-0.551-0.404-1.111-0.661-1.682-0.771c-0.568-0.11-1-0.165-1.293-0.165c-1.322,0-2.461,0.422-3.416,1.267
		c-1.139,1.065-1.709,2.644-1.709,4.737v21.76V59c0,0.037,0,0.23,0,0.579c0,0.349,0.037,0.781,0.111,1.294
		c0.072,0.515,0.211,1.065,0.412,1.653c0.203,0.588,0.523,1.102,0.965,1.542c0.807,0.881,2.02,1.322,3.637,1.322
		c1.725,0,2.992-0.458,3.801-1.377c0.402-0.441,0.715-0.937,0.936-1.487c0.221-0.551,0.377-1.065,0.469-1.542
		c0.092-0.477,0.137-1.047,0.137-1.708v-0.055v-6.996h-3.855c-0.551,0-1.02-0.193-1.404-0.578c-0.387-0.386-0.578-0.854-0.578-1.405
		c0-0.514,0.191-0.964,0.578-1.35c0.385-0.386,0.854-0.579,1.404-0.579h7.713v10.797c0.035,0.147,0.045,0.459,0.027,0.937
		c-0.02,0.478-0.082,1.028-0.193,1.652c-0.404,2.021-1.193,3.673-2.369,4.958C686.959,68.42,684.736,69.302,681.947,69.302z"/>
	<path fill="#231F20" d="M745.766,28.399c0.385,0.386,0.578,0.854,0.578,1.405c0,0.515-0.193,0.964-0.578,1.35
		c-0.387,0.386-0.836,0.579-1.35,0.579h-6.666v35.146c0,0.551-0.184,1.011-0.551,1.377s-0.826,0.551-1.377,0.551
		c-0.516,0-0.965-0.184-1.35-0.551c-0.387-0.367-0.578-0.826-0.578-1.377V31.732h-6.777c-0.551,0-1.018-0.193-1.404-0.579
		c-0.385-0.385-0.578-0.835-0.578-1.35c0-0.551,0.193-1.019,0.578-1.405c0.387-0.385,0.854-0.578,1.404-0.578h17.299
		C744.93,27.821,745.379,28.014,745.766,28.399z"/>
	<path fill="#231F20" d="M769.59,27.821c0.514,0,0.965,0.193,1.35,0.578c0.387,0.386,0.578,0.836,0.578,1.35v37.129
		c0,0.515-0.191,0.964-0.578,1.35c-0.385,0.386-0.836,0.579-1.35,0.579c-0.551,0-1.02-0.193-1.404-0.579
		c-0.385-0.385-0.578-0.834-0.578-1.35V52.555h-11.568v14.323c0,0.515-0.193,0.964-0.578,1.35c-0.387,0.386-0.855,0.579-1.406,0.579
		c-0.514,0-0.963-0.193-1.35-0.579c-0.385-0.385-0.578-0.834-0.578-1.35V29.749c0-0.514,0.193-0.964,0.578-1.35
		c0.387-0.385,0.836-0.578,1.35-0.578c0.551,0,1.02,0.193,1.406,0.578c0.385,0.386,0.578,0.836,0.578,1.35v18.896h11.568V29.749
		c0-0.514,0.193-0.964,0.578-1.35C768.57,28.014,769.039,27.821,769.59,27.821z"/>
	<path fill="#231F20" d="M796.914,67.099c0.109,0.515,0.018,0.983-0.275,1.405c-0.295,0.421-0.68,0.688-1.158,0.798h-0.33
		c-0.404,0-0.779-0.138-1.129-0.413s-0.561-0.614-0.633-1.019l-1.488-7.162h-8.924l-1.432,7.162
		c-0.074,0.405-0.285,0.744-0.635,1.019s-0.744,0.413-1.184,0.413h-0.33c-0.479-0.11-0.855-0.377-1.131-0.798
		c-0.275-0.422-0.357-0.89-0.248-1.405l7.658-38.066c0.035-0.146,0.072-0.239,0.109-0.275v-0.055v-0.055
		c0.074-0.183,0.166-0.312,0.275-0.386v-0.11h0.057v-0.055h0.055v-0.055h0.055v-0.055h0.055c0.074-0.073,0.146-0.128,0.221-0.165
		c0.074-0.036,0.166-0.073,0.275-0.11v-0.055h0.055c0.074-0.036,0.156-0.055,0.248-0.055s0.174-0.018,0.248-0.055h0.055h0.111h0.055
		c0.072,0.037,0.156,0.055,0.248,0.055s0.174,0.019,0.248,0.055h0.055v0.055c0.146,0.037,0.256,0.074,0.33,0.11
		c0.074,0.037,0.146,0.092,0.221,0.165h0.055v0.055h0.055v0.055h0.057v0.055l0.055,0.11c0.035,0.074,0.082,0.138,0.137,0.193
		c0.057,0.055,0.102,0.12,0.139,0.193v0.055v0.055c0.035,0.037,0.055,0.129,0.055,0.275L796.914,67.099z M791.184,57.127
		l-3.801-18.62l-3.689,18.62H791.184z"/>
	<path fill="#231F20" d="M824.402,68.145V68.2c-0.146,0.147-0.275,0.239-0.387,0.275c0,0.037-0.018,0.055-0.055,0.055l-0.055,0.055
		h-0.055l-0.055,0.055h-0.057c-0.109,0.036-0.238,0.091-0.385,0.165h-0.055h-0.055h-0.057h-0.055h-0.109h-0.111h-0.109h-0.055
		h-0.055h-0.057c-0.074,0-0.129-0.019-0.164-0.055h-0.111c-0.146-0.037-0.293-0.11-0.439-0.22c-0.037-0.036-0.074-0.063-0.111-0.083
		c-0.037-0.018-0.074-0.046-0.109-0.083l-0.111-0.11h-0.055l-0.055-0.055v-0.055c-0.037,0-0.055-0.008-0.055-0.027
		c0-0.018-0.02-0.028-0.055-0.028v-0.055c0-0.036-0.01-0.055-0.027-0.055c-0.02,0-0.029-0.018-0.029-0.055h-0.055
		c0-0.073-0.018-0.11-0.055-0.11V67.76l-0.055-0.11c0-0.036-0.01-0.064-0.027-0.083c-0.02-0.018-0.027-0.046-0.027-0.083
		l-4.684-14.157l-4.682,14.157c-0.037,0.037-0.055,0.092-0.055,0.166h-0.057c0,0.074-0.018,0.11-0.055,0.11v0.055l-0.055,0.11
		c-0.037,0.037-0.055,0.074-0.055,0.11c-0.037,0-0.057,0.019-0.057,0.055l-0.055,0.055l-0.055,0.055l-0.055,0.055l-0.111,0.11
		h-0.055c-0.074,0.074-0.146,0.129-0.221,0.165c-0.109,0.11-0.238,0.183-0.385,0.22h-0.109h-0.057
		c-0.037,0.036-0.074,0.055-0.109,0.055h-0.055h-0.055h-0.111h-0.055h-0.055h-0.111h-0.055h-0.055h-0.055h-0.055h-0.057
		c-0.109-0.037-0.238-0.092-0.385-0.165h-0.055h-0.057v-0.055h-0.055l-0.055-0.055c-0.037,0-0.055-0.018-0.055-0.055h-0.055
		c-0.074-0.036-0.166-0.11-0.275-0.22V68.2h-0.057c0-0.036-0.018-0.055-0.055-0.055c0-0.036-0.018-0.055-0.055-0.055v-0.055
		l-0.055-0.055l-0.055-0.055l-0.166-0.331v-0.11c-0.037,0-0.055-0.018-0.055-0.055v-0.055v-0.055v-0.055
		c-0.037-0.036-0.055-0.091-0.055-0.165l-4.572-37.074c-0.074-0.514,0.055-0.982,0.385-1.405c0.33-0.422,0.771-0.67,1.322-0.744
		c0.514-0.073,0.982,0.055,1.404,0.385s0.67,0.753,0.744,1.267l3.525,28.536l3.801-11.568l0.055-0.055v-0.055
		c0-0.036,0.02-0.055,0.057-0.055v-0.055V46.22l0.109-0.11v-0.055L814.816,46l0.055-0.055c0-0.036,0.02-0.055,0.057-0.055v-0.055
		h0.055v-0.055l0.055-0.055c0.037,0,0.055-0.018,0.055-0.055h0.055v-0.055l0.057-0.055c0.072-0.073,0.154-0.119,0.248-0.138
		c0.09-0.018,0.174-0.064,0.246-0.138h0.111l0.055-0.055h0.055h0.057h0.055h0.055v-0.055h0.055h0.055h0.057h0.055h0.055h0.055h0.055
		h0.057h0.055h0.055h0.055l0.055,0.055h0.057h0.109c0.037,0,0.055,0.009,0.055,0.027c0,0.019,0.018,0.028,0.055,0.028h0.111
		c0.072,0.074,0.146,0.12,0.221,0.138c0.072,0.019,0.146,0.064,0.219,0.138l0.057,0.055c0.035,0,0.055,0.019,0.055,0.055h0.055
		v0.055h0.055v0.055c0.037,0,0.055,0.019,0.055,0.055h0.057v0.055l0.055,0.055L818.012,46c0,0.037,0.018,0.055,0.055,0.055v0.055
		v0.055h0.057v0.055v0.055c0.035,0,0.055,0.019,0.055,0.055l0.055,0.055v0.055v0.055l3.855,11.568l3.525-28.536
		c0.074-0.514,0.322-0.937,0.744-1.267s0.891-0.458,1.404-0.385c0.516,0.074,0.945,0.322,1.295,0.744
		c0.35,0.422,0.486,0.891,0.414,1.405l-4.572,37.074c-0.037,0.037-0.055,0.092-0.055,0.165v0.055v0.055l-0.057,0.055v0.055
		c0,0.037-0.018,0.074-0.055,0.11c0,0.074-0.037,0.147-0.109,0.22c0,0.037-0.02,0.074-0.055,0.11v0.055h-0.057v0.055l-0.055,0.055
		v0.055H824.402z"/>
	<path fill="#231F20" d="M886.377,68.145V68.2c-0.146,0.147-0.275,0.239-0.387,0.275c0,0.037-0.018,0.055-0.055,0.055l-0.055,0.055
		h-0.055l-0.055,0.055h-0.057c-0.109,0.036-0.238,0.091-0.385,0.165h-0.055h-0.055h-0.057h-0.055H885h-0.111h-0.109h-0.055h-0.055
		h-0.057c-0.074,0-0.129-0.019-0.164-0.055h-0.111c-0.146-0.037-0.293-0.11-0.439-0.22c-0.037-0.036-0.074-0.063-0.111-0.083
		c-0.037-0.018-0.074-0.046-0.109-0.083l-0.111-0.11h-0.055l-0.055-0.055v-0.055c-0.037,0-0.055-0.008-0.055-0.027
		c0-0.018-0.02-0.028-0.055-0.028v-0.055c0-0.036-0.01-0.055-0.027-0.055c-0.02,0-0.029-0.018-0.029-0.055h-0.055
		c0-0.073-0.018-0.11-0.055-0.11V67.76l-0.055-0.11c0-0.036-0.01-0.064-0.027-0.083c-0.02-0.018-0.027-0.046-0.027-0.083
		l-4.684-14.157l-4.682,14.157c-0.037,0.037-0.055,0.092-0.055,0.166h-0.057c0,0.074-0.018,0.11-0.055,0.11v0.055l-0.055,0.11
		c-0.037,0.037-0.055,0.074-0.055,0.11c-0.037,0-0.057,0.019-0.057,0.055l-0.055,0.055l-0.055,0.055l-0.055,0.055l-0.111,0.11
		h-0.055c-0.074,0.074-0.146,0.129-0.221,0.165c-0.109,0.11-0.238,0.183-0.385,0.22h-0.109h-0.057
		c-0.037,0.036-0.074,0.055-0.109,0.055h-0.055h-0.055h-0.111h-0.055h-0.055h-0.111h-0.055h-0.055h-0.055h-0.055h-0.057
		c-0.109-0.037-0.238-0.092-0.385-0.165h-0.055h-0.057v-0.055h-0.055l-0.055-0.055c-0.037,0-0.055-0.018-0.055-0.055h-0.055
		c-0.074-0.036-0.166-0.11-0.275-0.22V68.2H870.4c0-0.036-0.018-0.055-0.055-0.055c0-0.036-0.018-0.055-0.055-0.055v-0.055
		l-0.055-0.055l-0.055-0.055l-0.166-0.331v-0.11c-0.037,0-0.055-0.018-0.055-0.055v-0.055v-0.055v-0.055
		c-0.037-0.036-0.055-0.091-0.055-0.165l-4.572-37.074c-0.074-0.514,0.055-0.982,0.385-1.405c0.33-0.422,0.771-0.67,1.322-0.744
		c0.514-0.073,0.982,0.055,1.404,0.385s0.67,0.753,0.744,1.267l3.525,28.536l3.801-11.568l0.055-0.055v-0.055
		c0-0.036,0.02-0.055,0.057-0.055v-0.055V46.22l0.109-0.11v-0.055L876.791,46l0.055-0.055c0-0.036,0.02-0.055,0.057-0.055v-0.055
		h0.055v-0.055l0.055-0.055c0.037,0,0.055-0.018,0.055-0.055h0.055v-0.055l0.057-0.055c0.072-0.073,0.154-0.119,0.248-0.138
		c0.09-0.018,0.174-0.064,0.246-0.138h0.111l0.055-0.055h0.055h0.057h0.055h0.055v-0.055h0.055h0.055h0.057h0.055h0.055h0.055h0.055
		h0.057h0.055h0.055h0.055l0.055,0.055h0.057h0.109c0.037,0,0.055,0.009,0.055,0.027c0,0.019,0.018,0.028,0.055,0.028h0.111
		c0.072,0.074,0.146,0.12,0.221,0.138c0.072,0.019,0.146,0.064,0.219,0.138l0.057,0.055c0.035,0,0.055,0.019,0.055,0.055h0.055
		v0.055h0.055v0.055c0.037,0,0.055,0.019,0.055,0.055h0.057v0.055l0.055,0.055L879.986,46c0,0.037,0.018,0.055,0.055,0.055v0.055
		v0.055h0.057v0.055v0.055c0.035,0,0.055,0.019,0.055,0.055l0.055,0.055v0.055v0.055l3.855,11.568l3.525-28.536
		c0.074-0.514,0.322-0.937,0.744-1.267s0.891-0.458,1.404-0.385c0.516,0.074,0.945,0.322,1.295,0.744
		c0.35,0.422,0.486,0.891,0.414,1.405l-4.572,37.074c-0.037,0.037-0.055,0.092-0.055,0.165v0.055v0.055l-0.057,0.055v0.055
		c0,0.037-0.018,0.074-0.055,0.11c0,0.074-0.037,0.147-0.109,0.22c0,0.037-0.02,0.074-0.055,0.11v0.055h-0.057v0.055l-0.055,0.055
		v0.055H886.377z"/>
	<path fill="#231F20" d="M902.242,68.806c-0.551,0-1.012-0.193-1.377-0.579c-0.369-0.385-0.551-0.834-0.551-1.35V29.749
		c0-0.514,0.182-0.964,0.551-1.35c0.365-0.385,0.826-0.578,1.377-0.578c0.514,0,0.963,0.193,1.35,0.578
		c0.385,0.386,0.578,0.836,0.578,1.35v37.129c0,0.515-0.193,0.964-0.578,1.35C903.205,68.613,902.756,68.806,902.242,68.806z"/>
	<path fill="#231F20" d="M932.016,28.399c0.387,0.386,0.578,0.854,0.578,1.405c0,0.515-0.191,0.964-0.578,1.35
		c-0.385,0.386-0.836,0.579-1.35,0.579H924v35.146c0,0.551-0.184,1.011-0.551,1.377s-0.826,0.551-1.377,0.551
		c-0.514,0-0.963-0.184-1.35-0.551c-0.385-0.367-0.578-0.826-0.578-1.377V31.732h-6.775c-0.551,0-1.02-0.193-1.404-0.579
		c-0.387-0.385-0.58-0.835-0.58-1.35c0-0.551,0.193-1.019,0.58-1.405c0.385-0.385,0.854-0.578,1.404-0.578h17.297
		C931.18,27.821,931.631,28.014,932.016,28.399z"/>
	<path fill="#231F20" d="M955.842,27.821c0.514,0,0.963,0.193,1.35,0.578c0.385,0.386,0.578,0.836,0.578,1.35v37.129
		c0,0.515-0.193,0.964-0.578,1.35c-0.387,0.386-0.836,0.579-1.35,0.579c-0.551,0-1.02-0.193-1.406-0.579
		c-0.385-0.385-0.578-0.834-0.578-1.35V52.555h-11.568v14.323c0,0.515-0.191,0.964-0.578,1.35c-0.385,0.386-0.854,0.579-1.404,0.579
		c-0.516,0-0.965-0.193-1.35-0.579c-0.387-0.385-0.578-0.834-0.578-1.35V29.749c0-0.514,0.191-0.964,0.578-1.35
		c0.385-0.385,0.834-0.578,1.35-0.578c0.551,0,1.02,0.193,1.404,0.578c0.387,0.386,0.578,0.836,0.578,1.35v18.896h11.568V29.749
		c0-0.514,0.193-0.964,0.578-1.35C954.822,28.014,955.291,27.821,955.842,27.821z"/>
</g>
<path fill="none" d="M439-305.106"/>
<path fill="none" d="M1661.794,484.002"/>
<path fill="#231F20" d="M1187.166,267.613c-15.61,0-28.266-12.655-28.266-28.266c0,15.61-12.655,28.266-28.266,28.266
	s-28.266-12.655-28.266-28.266c0,15.61-12.654,28.266-28.266,28.266c-15.61,0-28.266-12.655-28.266-28.266
	c0,15.61-12.654,28.266-28.265,28.266s-28.265-12.655-28.265-28.266c0,15.61-12.655,28.266-28.267,28.266
	c-15.61,0-28.266-12.655-28.266-28.266c0,15.61-12.654,28.266-28.266,28.266c-15.61,0-28.265-12.655-28.265-28.266
	c0,15.61-12.654,28.266-28.266,28.266c-14.36,0-26.211-10.712-28.019-24.58v-3.686c0,0.875-0.046,1.74-0.124,2.595
	c-0.077-0.855-0.123-1.72-0.123-2.595c0,15.569-12.588,28.195-28.143,28.263c-15.553-0.067-28.141-12.694-28.141-28.263
	c0,0.878-0.046,1.745-0.124,2.602c-0.078-0.857-0.124-1.724-0.124-2.602c0,15.569-12.588,28.195-28.141,28.263
	c-15.554-0.067-28.143-12.694-28.143-28.263c0,0.874-0.046,1.736-0.123,2.589c-0.077-0.853-0.123-1.715-0.123-2.589
	c0,15.569-12.589,28.196-28.143,28.263c-15.554-0.067-28.143-12.693-28.143-28.263c0,0.874-0.046,1.736-0.123,2.589
	c-0.077-0.853-0.123-1.715-0.123-2.589c0,15.569-12.589,28.195-28.143,28.263c-15.554-0.067-28.143-12.694-28.143-28.263
	c0,0.874-0.046,1.736-0.123,2.589c-0.077-0.853-0.123-1.715-0.123-2.589c0,15.569-12.588,28.195-28.142,28.263
	c-15.553-0.067-28.141-12.694-28.141-28.263c0,0.878-0.046,1.745-0.124,2.602c-0.078-0.857-0.124-1.724-0.124-2.602
	c0,15.569-12.588,28.195-28.142,28.263c-15.553-0.067-28.142-12.694-28.142-28.263c0,0.874-0.045,1.736-0.123,2.589
	c-0.078-0.853-0.123-1.715-0.123-2.589c0,15.569-12.589,28.196-28.143,28.263c-15.554-0.067-28.142-12.693-28.142-28.263
	c0,0.719-0.036,1.429-0.088,2.135c-0.111-1.355-0.158-2.135-0.158-2.135c0,0.874,0.045,1.736,0.123,2.589
	c-1.308,14.396-13.405,25.677-28.143,25.677c-15.61,0-28.266-12.655-28.266-28.266c0,15.61-12.654,28.266-28.266,28.266
	c-15.61,0-28.266-12.655-28.266-28.266c0,15.61-12.654,28.266-28.265,28.266s-28.265-12.655-28.265-28.266
	c0,15.61-12.655,28.266-28.266,28.266c-15.611,0-28.266-12.655-28.266-28.266c0,15.61-12.655,28.266-28.267,28.266
	c-15.61,0-28.265-12.655-28.265-28.266c0,15.61-12.654,28.266-28.266,28.266s-28.266-12.655-28.266-28.266
	c0,15.61-12.654,28.266-28.266,28.266c-15.61,0-28.265-12.655-28.265-28.266c0,15.61-12.655,28.266-28.266,28.266
	c-0.089,0-0.176-0.006-0.265-0.007l0.121,10.548h0.822c0,15.359,12.495,27.855,27.854,27.855c15.359,0,27.854-12.496,27.854-27.855
	h0.822c0,15.359,12.495,27.855,27.854,27.855s27.854-12.496,27.854-27.855h0.823c0,15.359,12.495,27.855,27.854,27.855
	c15.358,0,27.854-12.496,27.854-27.855h0.822c0,15.359,12.495,27.855,27.854,27.855s27.855-12.496,27.855-27.855h0.821
	c0,15.359,12.495,27.855,27.854,27.855s27.854-12.496,27.854-27.855h0.821c0,15.359,12.495,27.855,27.854,27.855
	c15.36,0,27.854-12.496,27.854-27.855h0.821c0,15.359,12.496,27.855,27.855,27.855s27.854-12.496,27.854-27.855h0.822
	c0,15.359,12.495,27.855,27.854,27.855c13.144,0,24.184-9.156,27.096-21.423c0.171-0.155,0.339-0.298,0.512-0.463v-2.325
	c0.157-1.194,0.246-2.409,0.246-3.645h0.576c0,15.359,12.495,27.855,27.854,27.855c0.042,0,0.082-0.003,0.124-0.003
	s0.082,0.003,0.124,0.003c15.359,0,27.854-12.496,27.854-27.855h0.575c0,15.359,12.495,27.855,27.854,27.855
	c0.042,0,0.082-0.003,0.124-0.003s0.082,0.003,0.124,0.003c15.358,0,27.854-12.496,27.854-27.855h0.575
	c0,15.359,12.495,27.855,27.854,27.855c0.041,0,0.082-0.003,0.123-0.003c0.042,0,0.083,0.003,0.124,0.003
	c15.358,0,27.854-12.496,27.854-27.855h0.574c0,15.359,12.495,27.855,27.854,27.855c0.041,0,0.082-0.003,0.124-0.003
	c0.041,0,0.082,0.003,0.123,0.003c15.359,0,27.854-12.496,27.854-27.855h0.575c0,15.359,12.495,27.855,27.854,27.855
	c0.041,0,0.082-0.003,0.124-0.003c0.041,0,0.082,0.003,0.123,0.003c15.358,0,27.854-12.496,27.854-27.855h0.574
	c0,15.359,12.495,27.855,27.854,27.855c0.042,0,0.082-0.003,0.124-0.003s0.082,0.003,0.124,0.003
	c15.358,0,27.854-12.496,27.854-27.855h0.574c0,15.359,12.496,27.855,27.855,27.855s27.854-12.496,27.854-27.855h0.822
	c0,15.359,12.495,27.855,27.854,27.855c15.358,0,27.854-12.496,27.854-27.855h0.823c0,15.359,12.495,27.855,27.854,27.855
	c15.359,0,27.854-12.496,27.854-27.855h0.822c0,15.359,12.495,27.855,27.854,27.855c15.358,0,27.854-12.496,27.854-27.855h0.821
	c0,15.359,12.495,27.855,27.855,27.855c15.358,0,27.854-12.496,27.854-27.855h0.821c0,15.359,12.495,27.855,27.854,27.855
	s27.854-12.496,27.854-27.855h0.821c0,15.359,12.496,27.855,27.855,27.855c15.358,0,27.854-12.496,27.854-27.855h0.478V267.6
	C1187.388,267.601,1187.278,267.613,1187.166,267.613z"/>
</svg>
