<?xml version="1.0" encoding="utf-8"?>
<!-- Generator: Adobe Illustrator 16.0.4, SVG Export Plug-In . SVG Version: 6.00 Build 0)  -->
<!DOCTYPE svg PUBLIC "-//W3C//DTD SVG 1.1//EN" "http://www.w3.org/Graphics/SVG/1.1/DTD/svg11.dtd">
<svg version="1.1" id="Layer_1" xmlns="http://www.w3.org/2000/svg" xmlns:xlink="http://www.w3.org/1999/xlink" x="0px" y="0px"
	 width="612px" height="792px" viewBox="0 0 612 792" enable-background="new 0 0 612 792" xml:space="preserve">
<g>
	<path fill="#4C4D52" d="M192.742,102.239c-0.529-2.923-1.541-5.819-3.086-8.832c-0.891,0.304-1.837,0.56-2.844,0.758
		c-8.241,1.62-13.227,5.714-15.689,12.886c-0.863,2.512-2.055,4.952-3.541,7.257c-1.803,2.795-3.711,5.435-5.557,7.987l-0.828,1.146
		c-0.788,1.094-1.602,2.08-2.32,2.951c-0.279,0.338-0.561,0.678-0.838,1.024l-11.229,13.979l-5.259-17.142
		c-0.213-0.69-0.392-1.357-0.562-2c-0.122-0.462-0.289-1.094-0.37-1.296c-3.73-7.494-4.159-15.091-1.236-22.497
		c0.563-1.429,1.156-3.042,1.272-4.159c0.417-4.008,0.643-8.22,0.69-12.874c0.029-2.863-0.982-3.854-1.363-4.227
		c-4.385-4.292-4.15-9.139-4.062-10.963c0.121-2.523,0.169-5.393-0.404-7.551c-0.645-2.427-1.885-5.062-3.197-7.851
		c-0.343-0.73-0.686-1.459-1.021-2.189c-0.997-2.172-2.335-4.796-3.837-5.812c-0.643-0.436-1.252-0.886-1.828-1.353
		c-0.396,0.407-0.795,0.813-1.194,1.219c-1.912,1.947-3.719,3.787-5.284,5.669c-2.066,2.485-3.412,5.329-3.998,8.45
		c-0.057,0.306-0.088,0.614-0.125,0.921c-0.111,0.905-0.264,2.145-0.625,3.501c-0.291,1.092-0.368,2.637,1.268,5.802
		c3.541,6.861,1.312,11.871-0.81,14.63c-0.466,1.95-0.958,4.174-1.292,6.399c-0.852,5.693,0.233,11.277,3.416,17.574
		c1.289,2.552,2.812,6.512,2.752,10.898c-0.046,3.337-0.848,6.36-1.492,8.789c-0.131,0.495-0.263,0.99-0.385,1.483
		c-0.416,1.668-1.004,3.051-1.476,4.162c-0.134,0.315-0.27,0.631-0.394,0.949l-2.656,6.858l-14.697-1.725l-1.367-6.305
		c-0.293-0.354-0.945-0.978-1.438-1.449c-0.46-0.44-0.921-0.882-1.368-1.336c-1.693-1.72-4.25-4.317-5.735-7.872
		c-1.36-3.255-3.212-6.135-5.661-8.805l-0.231-0.252c-0.601-0.655-1.48-1.616-1.945-1.965c-5.509-0.908-8.593-6.074-8.698-10.557
		c-0.01-0.432-0.051-0.583-0.406-0.973c-2.529-2.777-4.995-5.514-7.366-8.458c-2.433-3.021-5.305-4.906-8.782-5.763
		c-0.927-0.228-1.945-0.563-2.986-1.057c-0.145,0.727-0.229,2.002-0.287,2.904c-0.029,0.444-0.059,0.886-0.092,1.32
		c-0.17,2.19,0.167,4.842,0.523,7.648l0.189,1.51c0.152,1.244,0.567,2.583,2.553,3.937c6.939,4.734,6.846,10.855,6.123,14.189
		c0.024,0.201,0.047,0.399,0.066,0.595c0.064,0.672,1.098,2.312,1.652,3.191c1.773,2.816,3.923,4.806,6.765,6.262
		c3.491,1.784,5.741,5.53,6.009,10.016c0.081,1.361,0.047,2.604,0.016,3.701c-0.021,0.78-0.054,1.96,0.021,2.343
		c1.023,3.906,2.618,7.321,4.73,10.116c2.375,3.144,4.46,4.95,6.762,5.859c5.39,2.131,8.387,6.611,8.226,12.294
		c-0.08,2.818,0.849,5.275,2.839,7.511c2.37,2.659,5.234,5.395,9.013,8.606c2.709,2.303,4.909,3.86,6.923,4.899
		c4.224,2.181,9.229,3.027,16.158,2.715c5.425-0.247,10.367-1.905,15.107-5.068c5.678-3.79,10.155-7.92,13.686-12.626
		c2.625-3.499,3.49-7.043,2.725-11.154l-1.56-8.361l8.139-2.471c3.009-0.913,5.47-3.19,8.229-7.615
		c0.999-1.603,2.26-3.707,3.146-5.773l0.288-0.666c0.188-0.43,0.432-0.993,0.611-1.453c-2.352-4.831-1.113-10.456,3.227-14.038
		c1.219-1.008,2.24-2.664,3.412-5.536c0.546-1.337,1.059-2.735,1.602-4.215c0.869-2.372,1.77-4.825,2.914-7.325
		C192.861,104.513,192.973,103.511,192.742,102.239z"/>
</g>
<rect x="16.467" y="13" fill="none" stroke="#4C4D52" stroke-width="12" stroke-miterlimit="10" width="212.152" height="212.153"/>
</svg>
