<?xml version="1.0" encoding="utf-8"?>
<!-- Generator: Adobe Illustrator 16.0.4, SVG Export Plug-In . SVG Version: 6.00 Build 0)  -->
<!DOCTYPE svg PUBLIC "-//W3C//DTD SVG 1.1//EN" "http://www.w3.org/Graphics/SVG/1.1/DTD/svg11.dtd">
<svg version="1.1" id="Layer_1" xmlns="http://www.w3.org/2000/svg" xmlns:xlink="http://www.w3.org/1999/xlink" x="0px" y="0px"
	 width="223.333px" height="224px" viewBox="16.167 11.5 223.333 224" enable-background="new 16.167 11.5 223.333 224"
	 xml:space="preserve">
<rect x="21.918" y="17.313" fill="none" stroke="#4C4D52" stroke-width="12" stroke-miterlimit="10" width="212.152" height="212.152"/>
<g>
	<g>
		<g>
			<path fill="#4C4D52" d="M187.809,72.418c-1.812,13.852-5.32,26.173-11.166,37.783c-3.893,7.729-8.002,15.351-11.994,23.029
				c-0.37,0.71-0.857,1.489-0.861,2.239c-0.066,12.04-5.939,21.993-10.986,32.388c-2.966,6.109-3.973,13.14-6.345,19.578
				c-1.873,5.087-3.907,10.286-6.881,14.764c-7.348,11.062-22.597,10.77-27.945-1.397c-7.076-16.102-16.274-31.807-15.906-50.392
				c0.039-1.942-0.416-4.142-1.36-5.814c-5.23-9.258-11.222-18.122-15.928-27.63c-6.454-13.034-11.429-26.692-13.151-43.026
				c5.044,5.499,9.331,9.713,13.079,14.361c5.939,7.365,11.641,14.933,17.208,22.584c4.371,6.008,13.363,5.996,17.227-0.379
				c4.304-7.104,6.951-14.623,4.938-23.117c-0.231-0.978-0.605-2.15-0.287-2.995c5.354-14.197,0.998-30.806,10.89-43.864
				c0.599-0.789,1.089-1.662,1.629-2.496c0.655-0.052,1.309-0.102,1.963-0.152c1.302,9.615,3.158,19.196,3.746,28.855
				c0.546,8.973-1.061,18.106-0.196,27.022c0.605,6.241,3.09,12.587,5.998,18.238c2.615,5.081,12.123,2.129,16.777-4.033
				c8.03-10.635,16.568-20.886,24.957-31.247C184.326,75.343,185.809,74.269,187.809,72.418z"/>
		</g>
	</g>
</g>
</svg>
