<?xml version="1.0" encoding="utf-8"?>
<!-- Generator: Adobe Illustrator 16.0.4, SVG Export Plug-In . SVG Version: 6.00 Build 0)  -->
<!DOCTYPE svg PUBLIC "-//W3C//DTD SVG 1.1//EN" "http://www.w3.org/Graphics/SVG/1.1/DTD/svg11.dtd">
<svg version="1.1" id="Layer_1" xmlns="http://www.w3.org/2000/svg" xmlns:xlink="http://www.w3.org/1999/xlink" x="0px" y="0px"
	 width="243.5px" height="236.5px" viewBox="0 0 243.5 236.5" enable-background="new 0 0 243.5 236.5" xml:space="preserve">
<rect x="17.467" y="11.029" fill="none" stroke="#4C4D52" stroke-width="12" stroke-miterlimit="10" width="212.152" height="212.152"/>
<g>
	<path fill="#4C4D52" d="M114.906,117.104c2.573,3.32,5.602,6.287,8.717,9.676c3.199-3.111,6.137-6.125,9.259-8.937
		c1.582-1.424,1.786-2.865,1.556-4.893c-0.569-5.021-1.231-10.102-1.025-15.125c0.247-6.014-0.61-11.653-2.988-17.133
		c-0.47-1.082-0.843-2.255-0.994-3.421c-1.568-12.13-3.083-24.269-4.657-36.761c-1.738,7.912-5.591,14.898-5.559,23.157
		c0.027,7.302-0.15,14.741-3.167,21.758c-0.979,2.279-1.293,5.125-1.016,7.612c0.729,6.546,0.526,12.977-0.684,19.44
		C114.068,113.967,114.079,116.037,114.906,117.104z"/>
	<path fill="#4C4D52" d="M75.354,67.329c-2.105,3.652-4.246,7.284-6.283,10.975c-0.396,0.721-0.563,1.673-0.535,2.509
		c0.359,10.427,0.759,20.852,1.202,31.276c0.034,0.818,0.244,1.828,0.761,2.396c4.265,4.688,5.858,10.473,7.064,16.461
		c0.152,0.76,0.621,1.742,1.238,2.08c3.872,2.109,7.828,4.064,11.936,6.162c1.192-4.59,2.455-8.846,3.329-13.18
		c0.27-1.34-0.138-3.143-0.896-4.299c-2.292-3.5-5.161-6.547-5.62-11.09c-0.433-4.293-2.579-7.883-5.46-11.218
		c-1.749-2.026-2.689-4.863-3.597-7.474c-1.065-3.068-1.729-6.278-2.508-9.442c-0.254-1.034-0.476-2.119-0.447-3.174
		c0.104-3.908,0.318-7.813,0.491-11.72C75.805,67.504,75.579,67.417,75.354,67.329z"/>
	<path fill="#4C4D52" d="M179.359,89.678c-2.503-4.539-5.005-9.079-7.67-13.915c0,1.545-0.105,2.75,0.018,3.932
		c0.776,7.449-0.384,14.716-2.146,21.9c-0.309,1.258-1.314,2.406-2.186,3.451c-1.512,1.811-3.735,3.246-4.655,5.293
		c-2.402,5.346-4.489,10.744-9.387,14.5c-0.849,0.65-1.382,2.475-1.175,3.596c0.567,3.068,1.761,6.02,2.411,9.082
		c0.541,2.541,1.79,2.584,3.738,1.666c1.667-0.785,3.334-1.703,5.104-2.104c2.917-0.658,4.177-2.4,4.283-5.217
		c0.191-5.068,2.803-8.949,6.035-12.574c0.765-0.857,1.466-1.973,1.689-3.074c0.926-4.553,1.709-9.139,2.442-13.729
		c0.576-3.603,1.004-7.23,1.497-10.847C179.359,124.58,179.359,72.245,179.359,89.678z"/>
	<path fill="#4C4D52" d="M133.839,151.416c-2.844-2.592-6.572-3.934-9.907-5.832c-0.006,0.006-0.011,0.012-0.017,0.016
		c-0.196-0.172-0.393-0.344-0.59-0.516c-3.692,1.707-7.862,2.814-10.959,5.273c-4.076,3.236-5.738,7.984-4.223,13.404
		c0.316,1.131,0.169,2.381,0.324,3.564c0.351,2.678,0.064,5.729,1.278,7.949c2.993,5.475,6.668,10.578,10.104,15.807
		c1.717,2.613,4.097,2.812,6.841,1.766c-0.034-0.064-0.065-0.129-0.099-0.195c0.953-0.197,1.784-0.811,2.454-1.98
		c2.8-4.885,5.816-9.633,8.214-14.785c0.973-2.09,0.584-5.082,0.774-7.674c0.085-1.145-0.102-2.373,0.127-3.455
		C139.259,159.566,137.58,154.83,133.839,151.416z"/>
</g>
</svg>
