<?xml version="1.0" encoding="utf-8"?>
<!-- Generator: Adobe Illustrator 16.0.4, SVG Export Plug-In . SVG Version: 6.00 Build 0)  -->
<!DOCTYPE svg PUBLIC "-//W3C//DTD SVG 1.1//EN" "http://www.w3.org/Graphics/SVG/1.1/DTD/svg11.dtd">
<svg version="1.1" id="Layer_1" xmlns="http://www.w3.org/2000/svg" xmlns:xlink="http://www.w3.org/1999/xlink" x="0px" y="0px"
	 width="224.667px" height="224px" viewBox="10.25 5.917 224.667 224" enable-background="new 10.25 5.917 224.667 224"
	 xml:space="preserve">
<g>
	<g>
		<path fill="#4C4D52" d="M104.392,133.977c0.512-1.322,1.167-2.609,1.508-3.977c0.667-2.68,1.56-5.396,1.597-8.107
			c0.03-2.162-0.735-4.51-1.73-6.48c-3.724-7.367-5.567-15.027-4.333-23.268c0.397-2.65,0.98-5.279,1.611-7.885
			c0.226-0.933,0.681-1.917,1.315-2.623c1.457-1.622,1.02-3.028,0.129-4.754c-2.039-3.946-3.208-8.095-2.006-12.609
			c0.322-1.209,0.36-2.491,0.593-3.727c0.897-4.78,2.96-9.08,6.031-12.772c2.733-3.287,5.876-6.232,8.813-9.352
			c0.281-0.299,0.435-0.752,0.56-1.16c0.716-2.333,1.353-4.693,2.131-7.005c0.29-0.86,0.891-1.616,1.969-2.589
			c0.762,1.542,1.979,3.022,2.195,4.636c0.49,3.658,2.16,6.039,5.268,8.144c3.367,2.279,5.438,5.999,7.145,9.715
			c1.742,3.793,3.703,7.568,4.767,11.564c0.883,3.324,0.879,6.971,0.711,10.448c-0.078,1.621,0.033,2.557,1.217,3.714
			c3.074,3.008,4.265,6.927,4.222,11.116c-0.049,4.591-0.269,9.195-0.742,13.759c-0.235,2.266-1.039,4.521-1.885,6.664
			c-2.028,5.141-1.468,10.014,0.943,14.862c0.674,1.354,0.936,2.913,1.471,4.657c0.975-1.215,1.975-2.356,2.858-3.583
			c2.076-2.88,4.185-5.745,6.106-8.726c1.039-1.611,1.916-3.383,2.539-5.194c3.775-10.991,11.869-16.964,22.84-19.121
			c3.892-0.766,6.138-3.007,8.357-5.733c0.594-0.727,1.119-1.529,1.809-2.15c0.558-0.502,1.312-0.785,1.979-1.165
			c0.353,0.875,1.058,1.781,0.983,2.618c-0.191,2.172-0.846,4.301-1.073,6.472c-0.11,1.042,0.062,2.283,0.553,3.192
			c2.132,3.941,3.708,8.076,4.505,12.468c0.555,3.066,0.271,6.042-1.084,9c-1.662,3.627-2.847,7.47-4.355,11.17
			c-1.424,3.49-3.172,6.804-6.161,9.273c-0.933,0.771-1.298,1.667-0.593,2.807c2.137,3.457,0.482,6.66-0.852,9.771
			c-1.05,2.448-2.402,4.788-3.814,7.056c-3.312,5.309-7.37,9.81-13.531,11.68c1.293,6.936-0.359,13.126-4.463,18.597
			c-4.42,5.892-9.864,10.724-16.012,14.827c-6.08,4.059-12.701,6.326-19.951,6.656c-7.245,0.328-14.412-0.392-20.947-3.764
			c-3.128-1.615-6.021-3.812-8.717-6.104c-3.496-2.973-6.906-6.105-9.953-9.526c-3.506-3.937-5.394-8.717-5.241-14.1
			c0.049-1.734-0.619-2.556-2.22-3.188c-4.558-1.801-7.943-5.119-10.85-8.967c-3.057-4.045-5.085-8.642-6.35-13.473
			c-0.647-2.473-0.167-5.229-0.323-7.85c-0.044-0.744-0.333-1.859-0.856-2.127c-4.404-2.257-7.83-5.457-10.472-9.652
			c-1.455-2.311-2.804-4.582-3.07-7.34c-0.097-0.998-0.366-2.116-0.044-2.992c0.867-2.368-0.344-3.701-2.042-4.859
			c-3.778-2.578-6.076-6.115-6.629-10.632c-0.449-3.667-1.038-7.403-0.756-11.045c0.268-3.462,0.203-7.332,2.84-10.109
			c1.603-1.688,1.634-3.613,1.98-5.613c0.341-1.967,0.922-3.897,1.484-5.818c0.118-0.401,0.58-0.905,0.949-0.966
			c0.296-0.049,0.844,0.429,1.017,0.797c1.063,2.252,2.058,4.538,3.062,6.818c0.743,1.686,1.819,2.75,3.775,3.232
			c5.639,1.388,10.246,4.476,13.911,9.028c2.222,2.76,4.602,5.397,6.989,8.018c1.865,2.047,2.817,4.384,2.881,7.146
			c0.012,0.496,0.446,1.367,0.774,1.412c3.41,0.468,5.514,2.887,7.602,5.163c3.125,3.406,5.62,7.238,7.428,11.565
			c0.765,1.83,2.305,3.412,3.738,4.867c2.095,2.127,4.559,3.921,5.251,7.113C103.958,133.923,104.175,133.95,104.392,133.977z"/>
	</g>
</g>
<rect x="16.918" y="12" fill="none" stroke="#4C4D52" stroke-width="12" stroke-miterlimit="10" width="212.152" height="212.152"/>
</svg>
