<?xml version="1.0" encoding="utf-8"?>
<!-- Generator: Adobe Illustrator 16.0.4, SVG Export Plug-In . SVG Version: 6.00 Build 0)  -->
<!DOCTYPE svg PUBLIC "-//W3C//DTD SVG 1.1//EN" "http://www.w3.org/Graphics/SVG/1.1/DTD/svg11.dtd">
<svg version="1.1" id="Layer_1" xmlns="http://www.w3.org/2000/svg" xmlns:xlink="http://www.w3.org/1999/xlink" x="0px" y="0px"
	 width="224.667px" height="224.5px" viewBox="5.083 2.25 224.667 224.5" enable-background="new 5.083 2.25 224.667 224.5"
	 xml:space="preserve">
<path fill="#4C4D52" d="M190.271,106.249c-0.685-3.77-1.985-7.558-3.877-11.276c0.057-0.308,0.123-0.641,0.191-0.983
	c0.209-1.042,0.446-2.222,0.564-3.558c0.236-2.698-0.811-4.703-1.312-5.666l-3.252-8.152l-7.639,4.362l-0.191,0.097
	c-0.633,0.32-1.691,0.855-2.766,1.823c-0.918,0.827-1.57,1.681-2.004,2.245c-0.086,0.114-0.174,0.229-0.262,0.339
	c-1.455,1.784-1.82,1.856-2.281,1.947c-7.814,1.536-14.082,5.052-18.553,10.34c0.086-1.746,0.137-3.546,0.156-5.418
	c0.051-5.05-1.443-9.515-4.342-13.035c0.088-2.895-0.014-6.159-0.877-9.407c-0.875-3.294-2.281-6.284-3.521-8.921
	c-0.258-0.547-0.514-1.092-0.766-1.639c-1.739-3.787-4.102-8.054-8.43-10.985c-0.865-0.585-0.877-0.673-0.953-1.242
	c-0.326-2.447-1.411-4.272-2.129-5.481c-0.127-0.213-0.26-0.423-0.367-0.64l-4.489-9.083l-7.52,6.79
	c-1.284,1.16-2.867,2.814-3.715,5.332c-0.452,1.342-0.836,2.651-1.208,3.917c-0.086,0.295-0.174,0.592-0.261,0.89
	c-0.442,0.455-0.886,0.907-1.331,1.36c-1.693,1.724-3.444,3.507-5.112,5.512c-3.357,4.037-5.546,8.678-6.505,13.791
	c-0.121,0.645-0.193,1.235-0.251,1.709c-0.033,0.27-0.078,0.639-0.1,0.741c-1.189,4.462-0.762,8.982,1.309,13.759
	c-0.383,0.807-0.688,1.661-0.899,2.534c-0.461,1.902-6.93,8.513-8.65,6.625c-1.26-1.383-17.118-10.8-27.663-15.861
	c-0.129-0.28-0.252-0.562-0.384-0.84c-0.14-0.297-0.582-0.683-0.821-0.644c-0.245,0.04-0.531,0.321-0.682,0.6
	c-4.179-1.906-7.174-2.885-7.44-1.975l-0.078,0.266c-0.461,1.569-0.983,3.349-1.317,5.276c-0.055,0.316-0.103,0.631-0.149,0.943
	c-0.012,0.084-0.026,0.178-0.041,0.271c-3.239,3.853-3.531,8.303-3.728,11.304c-0.02,0.297-0.039,0.592-0.061,0.883
	c-0.258,3.329,0.145,6.494,0.5,9.288l0.144,1.147c0.615,5.025,2.958,9.339,6.817,12.596c0.014,0.746,0.097,1.378,0.158,1.844
	c0.013,0.094,0.026,0.188,0.035,0.278c0.371,3.84,1.993,6.685,3.621,9.271c2.13,3.382,4.792,6.199,7.945,8.416
	c-0.027,1.535,0.018,3.334,0.526,5.276c1.342,5.129,3.504,9.688,6.422,13.55c1.904,2.521,4.801,5.916,9.137,8.354
	c0.545,4.903,2.597,9.452,6.03,13.308c2.395,2.688,5.188,5.366,8.789,8.428c3.098,2.634,5.792,4.506,8.482,5.895
	c5.147,2.657,11.016,3.949,17.941,3.949c0.908,0,1.857-0.023,2.822-0.066c7.146-0.324,13.877-2.562,20.004-6.652
	c6.049-4.037,10.89-8.53,14.795-13.737c3.396-4.525,5.236-9.597,5.455-14.91c4.566-2.897,7.484-6.933,9.437-10.062
	c1.095-1.756,2.495-4.105,3.619-6.727l0.2-0.466c0.878-2.015,2.447-5.628,1.75-9.786c2.041-2.527,3.312-5.236,4.236-7.504
	c0.545-1.334,1.025-2.645,1.49-3.913c0.628-1.713,1.221-3.331,1.896-4.804C190.528,114.343,191.017,110.366,190.271,106.249z"/>
<rect x="10.917" y="7.999" fill="none" stroke="#4C4D52" stroke-width="12" stroke-miterlimit="10" width="212.152" height="212.152"/>
</svg>
